M48
; DRILL file {KiCad (5.1.5-0-10_14)} date Saturday, December 05, 2020 at 05:11:53 PM
; FORMAT={-:-/ absolute / inch / decimal}
; #@! TF.CreationDate,2020-12-05T17:11:53-05:00
; #@! TF.GenerationSoftware,Kicad,Pcbnew,(5.1.5-0-10_14)
; #@! TF.FileFunction,Plated,1,4,PTH
FMAT,2
INCH
T1C0.0157
T2C0.0236
T3C0.0250
T4C0.0300
T5C0.0315
T6C0.0350
T7C0.0362
T8C0.0394
T9C0.0472
T10C0.0591
T11C0.0906
T12C0.0917
T13C0.1575
%
G90
G05
T1
X3.095Y-5.37
X3.11Y-5.12
X3.11Y-5.165
X3.3Y-5.07
X3.43Y-5.67
X3.51Y-5.24
X3.55Y-4.85
X3.55Y-5.8
X3.62Y-5.17
X3.77Y-3.63
X3.8615Y-4.56
X3.87Y-4.29
X3.9Y-5.55
X3.92Y-5.79
X4.09Y-5.89
X4.11Y-4.93
X4.13Y-4.07
X4.13Y-5.49
X4.16Y-5.29
X4.17Y-5.59
X4.1766Y-5.2543
X4.18Y-4.95
X4.21Y-5.23
X4.2304Y-4.89
X4.25Y-5.76
X4.26Y-3.92
X4.295Y-5.61
X4.2975Y-4.4975
X4.3Y-5.85
X4.319Y-5.2484
X4.3225Y-4.535
X4.33Y-2.8
X4.3525Y-5.2825
X4.355Y-4.565
X4.39Y-4.59
X4.4075Y-5.0025
X4.42Y-5.36
X4.42Y-5.56
X4.42Y-5.72
X4.45Y-4.46
X4.45Y-5.53
X4.475Y-5.36
X4.48Y-5.76
X4.49Y-5.24
X4.5Y-4.44
X4.52Y-5.46
X4.525Y-5.0475
X4.53Y-5.36
X4.5425Y-4.415
X4.57Y-5.87
X4.585Y-5.36
X4.59Y-4.4025
X4.59Y-5.195
X4.6Y-4.7037
X4.6375Y-4.585
X4.64Y-5.36
X4.645Y-5.195
X4.69Y-4.7037
X4.695Y-5.36
X4.76Y-5.67
X4.8Y-5.59
X4.835Y-4.28
X4.94Y-4.77
X4.94Y-4.86
X4.94Y-4.95
X4.94Y-5.04
X4.97Y-2.81
X5.025Y-5.275
X5.09Y-3.67
X5.125Y-3.045
X5.16Y-5.29
X5.23Y-4.28
X5.32Y-3.27
X5.33Y-4.28
X5.4632Y-4.4858
X5.583Y-4.5539
X5.61Y-3.95
X5.628Y-4.538
X5.72Y-3.92
X5.75Y-3.65
X5.75Y-3.83
X5.83Y-5.22
X5.8475Y-4.515
X5.855Y-3.485
X5.8875Y-4.2025
X5.91Y-3.87
X5.94Y-3.55
X5.97Y-4.43
X5.975Y-2.98
X6.04Y-5.13
X6.05Y-3.78
X6.05Y-5.36
X6.1Y-3.66
X6.11Y-4.09
X6.14Y-3.54
X6.16Y-3.99
X6.23Y-3.98
X6.25Y-2.84
X6.2925Y-2.21
X6.365Y-3.99
X6.485Y-3.69
X6.49Y-3.0
X6.4975Y-3.11
X6.51Y-3.79
X6.51Y-4.19
X6.52Y-3.92
X6.53Y-2.71
X6.705Y-4.46
X6.75Y-2.15
X6.785Y-2.5
X6.82Y-3.29
X6.82Y-3.37
X6.83Y-4.4
X6.84Y-3.5
X6.84Y-3.89
X6.84Y-4.19
X6.84Y-4.29
X6.85Y-3.7
X6.92Y-3.99
X6.99Y-3.2
X7.02Y-3.73
X7.05Y-3.09
X7.1Y-2.7
X7.1Y-2.81
X7.12Y-3.93
X7.13Y-3.82
X7.13Y-4.15
X7.1352Y-3.5952
X7.2Y-3.49
X7.29Y-2.33
X7.3Y-2.96
X7.34Y-2.87
X7.35Y-3.97
X7.37Y-3.42
X7.37Y-3.54
X7.4Y-3.11
X7.4Y-3.34
X7.4085Y-3.2615
X7.415Y-3.65
T2
X7.6819Y-5.78
X7.7165Y-5.6965
X7.7165Y-5.8635
X7.8Y-5.6619
X7.8Y-5.8981
X7.8835Y-5.6965
X7.8835Y-5.8635
X7.9181Y-5.78
X3.0919Y-5.78
X3.1265Y-5.6965
X3.1265Y-5.8635
X3.21Y-5.6619
X3.21Y-5.8981
X3.2935Y-5.6965
X3.2935Y-5.8635
X3.3281Y-5.78
X3.0919Y-2.22
X3.1265Y-2.1365
X3.1265Y-2.3035
X3.21Y-2.1019
X3.21Y-2.3381
X3.2935Y-2.1365
X3.2935Y-2.3035
X3.3281Y-2.22
X7.6919Y-2.22
X7.7265Y-2.1365
X7.7265Y-2.3035
X7.81Y-2.1019
X7.81Y-2.3381
X7.8935Y-2.1365
X7.8935Y-2.3035
X7.9281Y-2.22
T3
X3.64Y-4.675
X4.09Y-3.98
X4.6475Y-4.7975
X4.6975Y-4.8975
X4.7175Y-5.0325
X4.72Y-4.9725
X4.7825Y-4.9725
X4.7825Y-5.0325
X4.845Y-4.9725
X4.845Y-5.035
X4.93Y-5.41
X4.93Y-5.5
X4.955Y-4.4475
X5.0025Y-5.5825
X5.085Y-5.18
X5.09Y-5.68
X5.09Y-5.7925
X5.09Y-5.9025
X5.14Y-5.485
X5.165Y-5.1
X5.18Y-4.9775
X5.2025Y-5.68
X5.2025Y-5.7925
X5.2025Y-5.9025
X5.2375Y-5.485
X5.2525Y-5.2075
X5.2625Y-5.585
X5.3175Y-5.68
X5.3175Y-5.7925
X5.3175Y-5.9025
X5.3875Y-4.9775
X5.3875Y-5.0975
X5.3875Y-5.2075
X5.39Y-5.43
X5.445Y-5.9025
X5.5575Y-5.9025
X5.5925Y-5.4825
X5.645Y-4.9575
X5.6725Y-5.9025
X5.7425Y-5.4975
X5.7425Y-5.6225
X5.8Y-5.045
X5.805Y-5.9025
X5.9125Y-5.045
X5.9175Y-5.9025
X5.97Y-4.64
X6.0275Y-5.045
X6.0325Y-5.9025
X6.0675Y-5.6575
X6.07Y-5.485
X6.1125Y-5.57
X6.135Y-4.64
X6.135Y-4.7525
X6.135Y-4.8925
X6.1625Y-5.9025
X6.195Y-5.6575
X6.2Y-5.24
X6.275Y-5.9025
X6.3Y-4.98
X6.3Y-5.16
X6.3075Y-5.6575
X6.36Y-5.33
X6.36Y-5.515
X6.39Y-5.24
X6.39Y-5.9025
X6.4225Y-5.6575
X6.44Y-4.64
X6.44Y-4.8625
X6.445Y-5.3275
X6.445Y-5.515
X6.5225Y-5.9025
X6.6325Y-4.735
X6.6325Y-4.865
X6.635Y-5.315
X6.635Y-5.4275
X6.635Y-5.5575
X6.635Y-5.6725
X6.635Y-5.785
X6.635Y-5.9025
X6.705Y-2.5475
X6.75Y-5.24
X6.86Y-4.8
X6.86Y-5.24
X6.86Y-5.5
X6.86Y-5.9
X7.15Y-4.4
X7.21Y-4.4
X7.27Y-4.4
X7.33Y-4.4
T4
X6.8Y-5.6
X6.8Y-5.8
X7.2Y-5.4
X7.2Y-5.6
X7.2Y-5.8
X6.8Y-4.9
X6.8Y-5.1
X7.2Y-4.7
X7.2Y-4.9
X7.2Y-5.1
T5
X6.8Y-4.7
X5.39Y-5.34
X5.49Y-5.34
X5.59Y-5.34
X5.67Y-3.2625
X5.67Y-3.3413
X5.67Y-3.42
X6.28Y-3.2625
X6.28Y-3.3413
X6.28Y-3.42
X5.39Y-5.62
X5.49Y-5.62
X5.59Y-5.62
X6.8Y-5.4
T6
X3.1075Y-4.155
X3.11Y-4.045
X3.115Y-2.6675
X3.115Y-2.8375
X3.115Y-3.0625
X3.115Y-3.185
X3.115Y-3.3325
X3.115Y-3.455
X3.115Y-3.595
X3.115Y-3.7175
X3.2325Y-3.185
X3.2325Y-3.455
X3.2325Y-3.7175
X3.2325Y-3.865
X3.235Y-3.0625
X3.235Y-3.3325
X3.235Y-3.595
X3.2375Y-2.8875
X3.2525Y-2.5825
X3.265Y-4.045
X3.35Y-3.125
X3.365Y-2.5825
X3.41Y-2.09
X3.41Y-3.4125
X3.4125Y-3.61
X3.45Y-3.975
X3.47Y-3.125
X3.51Y-3.87
X3.51Y-4.105
X3.57Y-3.03
X3.58Y-3.275
X3.595Y-3.6425
X3.5975Y-3.465
X3.63Y-2.4925
X3.64Y-2.9175
X3.6525Y-3.8325
X3.6525Y-4.1575
X3.655Y-2.09
X3.68Y-3.555
X3.6825Y-2.6175
X3.7025Y-3.6825
X3.8075Y-3.8325
X3.81Y-4.1575
X3.845Y-3.5325
X3.9175Y-3.61
X3.92Y-2.8
X3.92Y-2.89
X3.92Y-2.97
X3.92Y-3.4525
X3.945Y-2.0975
X3.955Y-4.155
X4.0625Y-2.095
X4.21Y-2.34
X4.21Y-2.42
X4.21Y-2.5
X4.36Y-3.8825
X4.4175Y-4.1475
X4.5025Y-3.3275
X4.5525Y-4.1475
X4.62Y-2.83
X4.62Y-2.91
X4.6575Y-3.1725
X4.6575Y-3.3275
X4.6875Y-4.1475
X4.79Y-2.83
X4.795Y-3.175
X4.795Y-3.3275
X4.825Y-4.1475
X4.84Y-2.18
X4.84Y-2.26
X4.84Y-2.34
X4.84Y-2.42
X4.84Y-2.5
X4.84Y-2.58
X4.84Y-2.66
X4.84Y-2.74
X4.8625Y-3.4625
X4.8625Y-3.61
X4.8625Y-3.77
X4.8625Y-3.9425
X4.9325Y-3.175
X4.935Y-3.325
X5.15Y-4.7391
X5.41Y-4.7391
X5.64Y-4.74
T7
X3.5Y-3.4
X3.5Y-3.4984
X3.5Y-3.5772
X3.5Y-3.6756
X3.4213Y-4.4016
X3.4213Y-4.5
X3.5Y-4.4016
X3.5Y-4.5
T8
X4.92Y-5.68
X4.92Y-5.78
X4.92Y-5.88
X3.925Y-4.82
X3.925Y-4.92
X5.3Y-2.65
X5.3Y-2.85
X5.5Y-2.65
X5.5Y-2.85
X5.6Y-2.65
X5.6Y-2.85
X5.7Y-2.65
X5.7Y-2.85
X5.24Y-3.74
X5.24Y-3.84
X5.24Y-3.94
T9
X7.68Y-4.7488
X7.68Y-4.8866
X7.68Y-5.0244
X7.68Y-5.1622
X7.68Y-5.3
X5.9122Y-2.32
X6.05Y-2.32
X7.68Y-2.6465
X7.68Y-2.7843
X7.68Y-2.922
X7.68Y-3.0598
X7.68Y-3.1976
X7.68Y-3.3354
X7.68Y-3.4732
X7.68Y-3.611
X7.68Y-3.7488
X7.68Y-3.8866
X7.68Y-4.0244
X7.68Y-4.1622
X7.68Y-4.3
X5.1744Y-2.32
X5.3122Y-2.32
X5.45Y-2.32
T10
X5.67Y-3.1798
X5.67Y-3.5027
X6.28Y-3.1798
X6.28Y-3.5027
T11
X3.3933Y-3.2791
X3.3933Y-3.7965
T12
X3.3146Y-4.2138
X3.3146Y-4.6878
T13
X3.21Y-2.22
X7.81Y-2.22
X7.8Y-5.78
X3.21Y-5.78
T8
G00X3.3138Y-2.7106
M15
G01X3.3138Y-2.7894
M16
G05
G00X3.3925Y-2.935
M15
G01X3.4713Y-2.935
M16
G05
G00X3.55Y-2.7106
M15
G01X3.55Y-2.7894
M16
G05
T0
M30
