G04 #@! TF.GenerationSoftware,KiCad,Pcbnew,(5.1.5-0-10_14)*
G04 #@! TF.CreationDate,2020-12-05T17:11:41-05:00*
G04 #@! TF.ProjectId,quantar-interface,7175616e-7461-4722-9d69-6e7465726661,rev?*
G04 #@! TF.SameCoordinates,Original*
G04 #@! TF.FileFunction,Legend,Bot*
G04 #@! TF.FilePolarity,Positive*
%FSLAX46Y46*%
G04 Gerber Fmt 4.6, Leading zero omitted, Abs format (unit mm)*
G04 Created by KiCad (PCBNEW (5.1.5-0-10_14)) date 2020-12-05 17:11:41*
%MOMM*%
%LPD*%
G04 APERTURE LIST*
%ADD10C,0.120000*%
%ADD11C,0.150000*%
G04 APERTURE END LIST*
D10*
X116491936Y-134260000D02*
X117696064Y-134260000D01*
X116491936Y-132440000D02*
X117696064Y-132440000D01*
X189826000Y-133472000D02*
X188126000Y-133472000D01*
X188126000Y-133472000D02*
X188126000Y-130322000D01*
X189826000Y-133472000D02*
X189826000Y-130322000D01*
X189826000Y-125578000D02*
X188126000Y-125578000D01*
X188126000Y-125578000D02*
X188126000Y-122428000D01*
X189826000Y-125578000D02*
X189826000Y-122428000D01*
X199478000Y-131948000D02*
X199478000Y-128798000D01*
X197778000Y-131948000D02*
X197778000Y-128798000D01*
X199478000Y-131948000D02*
X197778000Y-131948000D01*
X199478000Y-127122000D02*
X199478000Y-123972000D01*
X197778000Y-127122000D02*
X197778000Y-123972000D01*
X199478000Y-127122000D02*
X197778000Y-127122000D01*
X109024000Y-146650000D02*
X109024000Y-145450000D01*
X110874000Y-146650000D02*
X109024000Y-146650000D01*
X110874000Y-145450000D02*
X109024000Y-145450000D01*
X152960000Y-133611252D02*
X152960000Y-133088748D01*
X154380000Y-133611252D02*
X154380000Y-133088748D01*
X84066748Y-90372000D02*
X84589252Y-90372000D01*
X84066748Y-88952000D02*
X84589252Y-88952000D01*
X82542748Y-113740000D02*
X83065252Y-113740000D01*
X82542748Y-112320000D02*
X83065252Y-112320000D01*
D11*
X117736857Y-135527142D02*
X117784476Y-135574761D01*
X117927333Y-135622380D01*
X118022571Y-135622380D01*
X118165428Y-135574761D01*
X118260666Y-135479523D01*
X118308285Y-135384285D01*
X118355904Y-135193809D01*
X118355904Y-135050952D01*
X118308285Y-134860476D01*
X118260666Y-134765238D01*
X118165428Y-134670000D01*
X118022571Y-134622380D01*
X117927333Y-134622380D01*
X117784476Y-134670000D01*
X117736857Y-134717619D01*
X116784476Y-135622380D02*
X117355904Y-135622380D01*
X117070190Y-135622380D02*
X117070190Y-134622380D01*
X117165428Y-134765238D01*
X117260666Y-134860476D01*
X117355904Y-134908095D01*
X116451142Y-134622380D02*
X115784476Y-134622380D01*
X116213047Y-135622380D01*
X191278380Y-130833904D02*
X190278380Y-130833904D01*
X190278380Y-131072000D01*
X190326000Y-131214857D01*
X190421238Y-131310095D01*
X190516476Y-131357714D01*
X190706952Y-131405333D01*
X190849809Y-131405333D01*
X191040285Y-131357714D01*
X191135523Y-131310095D01*
X191230761Y-131214857D01*
X191278380Y-131072000D01*
X191278380Y-130833904D01*
X190611714Y-132262476D02*
X191278380Y-132262476D01*
X190230761Y-132024380D02*
X190945047Y-131786285D01*
X190945047Y-132405333D01*
X191278380Y-122939904D02*
X190278380Y-122939904D01*
X190278380Y-123178000D01*
X190326000Y-123320857D01*
X190421238Y-123416095D01*
X190516476Y-123463714D01*
X190706952Y-123511333D01*
X190849809Y-123511333D01*
X191040285Y-123463714D01*
X191135523Y-123416095D01*
X191230761Y-123320857D01*
X191278380Y-123178000D01*
X191278380Y-122939904D01*
X190278380Y-124416095D02*
X190278380Y-123939904D01*
X190754571Y-123892285D01*
X190706952Y-123939904D01*
X190659333Y-124035142D01*
X190659333Y-124273238D01*
X190706952Y-124368476D01*
X190754571Y-124416095D01*
X190849809Y-124463714D01*
X191087904Y-124463714D01*
X191183142Y-124416095D01*
X191230761Y-124368476D01*
X191278380Y-124273238D01*
X191278380Y-124035142D01*
X191230761Y-123939904D01*
X191183142Y-123892285D01*
X200930380Y-129309904D02*
X199930380Y-129309904D01*
X199930380Y-129548000D01*
X199978000Y-129690857D01*
X200073238Y-129786095D01*
X200168476Y-129833714D01*
X200358952Y-129881333D01*
X200501809Y-129881333D01*
X200692285Y-129833714D01*
X200787523Y-129786095D01*
X200882761Y-129690857D01*
X200930380Y-129548000D01*
X200930380Y-129309904D01*
X199930380Y-130738476D02*
X199930380Y-130548000D01*
X199978000Y-130452761D01*
X200025619Y-130405142D01*
X200168476Y-130309904D01*
X200358952Y-130262285D01*
X200739904Y-130262285D01*
X200835142Y-130309904D01*
X200882761Y-130357523D01*
X200930380Y-130452761D01*
X200930380Y-130643238D01*
X200882761Y-130738476D01*
X200835142Y-130786095D01*
X200739904Y-130833714D01*
X200501809Y-130833714D01*
X200406571Y-130786095D01*
X200358952Y-130738476D01*
X200311333Y-130643238D01*
X200311333Y-130452761D01*
X200358952Y-130357523D01*
X200406571Y-130309904D01*
X200501809Y-130262285D01*
X200930380Y-124483904D02*
X199930380Y-124483904D01*
X199930380Y-124722000D01*
X199978000Y-124864857D01*
X200073238Y-124960095D01*
X200168476Y-125007714D01*
X200358952Y-125055333D01*
X200501809Y-125055333D01*
X200692285Y-125007714D01*
X200787523Y-124960095D01*
X200882761Y-124864857D01*
X200930380Y-124722000D01*
X200930380Y-124483904D01*
X199930380Y-125388666D02*
X199930380Y-126055333D01*
X200930380Y-125626761D01*
X111388285Y-147802380D02*
X111388285Y-146802380D01*
X111150190Y-146802380D01*
X111007333Y-146850000D01*
X110912095Y-146945238D01*
X110864476Y-147040476D01*
X110816857Y-147230952D01*
X110816857Y-147373809D01*
X110864476Y-147564285D01*
X110912095Y-147659523D01*
X111007333Y-147754761D01*
X111150190Y-147802380D01*
X111388285Y-147802380D01*
X109864476Y-147802380D02*
X110435904Y-147802380D01*
X110150190Y-147802380D02*
X110150190Y-146802380D01*
X110245428Y-146945238D01*
X110340666Y-147040476D01*
X110435904Y-147088095D01*
X109483523Y-146897619D02*
X109435904Y-146850000D01*
X109340666Y-146802380D01*
X109102571Y-146802380D01*
X109007333Y-146850000D01*
X108959714Y-146897619D01*
X108912095Y-146992857D01*
X108912095Y-147088095D01*
X108959714Y-147230952D01*
X109531142Y-147802380D01*
X108912095Y-147802380D01*
X155772380Y-133183333D02*
X155296190Y-132850000D01*
X155772380Y-132611904D02*
X154772380Y-132611904D01*
X154772380Y-132992857D01*
X154820000Y-133088095D01*
X154867619Y-133135714D01*
X154962857Y-133183333D01*
X155105714Y-133183333D01*
X155200952Y-133135714D01*
X155248571Y-133088095D01*
X155296190Y-132992857D01*
X155296190Y-132611904D01*
X155105714Y-134040476D02*
X155772380Y-134040476D01*
X154724761Y-133802380D02*
X155439047Y-133564285D01*
X155439047Y-134183333D01*
X85161333Y-91240571D02*
X85494666Y-91240571D01*
X85494666Y-91764380D02*
X85494666Y-90764380D01*
X85018476Y-90764380D01*
X84304190Y-91240571D02*
X84161333Y-91288190D01*
X84113714Y-91335809D01*
X84066095Y-91431047D01*
X84066095Y-91573904D01*
X84113714Y-91669142D01*
X84161333Y-91716761D01*
X84256571Y-91764380D01*
X84637523Y-91764380D01*
X84637523Y-90764380D01*
X84304190Y-90764380D01*
X84208952Y-90812000D01*
X84161333Y-90859619D01*
X84113714Y-90954857D01*
X84113714Y-91050095D01*
X84161333Y-91145333D01*
X84208952Y-91192952D01*
X84304190Y-91240571D01*
X84637523Y-91240571D01*
X83113714Y-91764380D02*
X83685142Y-91764380D01*
X83399428Y-91764380D02*
X83399428Y-90764380D01*
X83494666Y-90907238D01*
X83589904Y-91002476D01*
X83685142Y-91050095D01*
X83637333Y-114608571D02*
X83970666Y-114608571D01*
X83970666Y-115132380D02*
X83970666Y-114132380D01*
X83494476Y-114132380D01*
X82780190Y-114608571D02*
X82637333Y-114656190D01*
X82589714Y-114703809D01*
X82542095Y-114799047D01*
X82542095Y-114941904D01*
X82589714Y-115037142D01*
X82637333Y-115084761D01*
X82732571Y-115132380D01*
X83113523Y-115132380D01*
X83113523Y-114132380D01*
X82780190Y-114132380D01*
X82684952Y-114180000D01*
X82637333Y-114227619D01*
X82589714Y-114322857D01*
X82589714Y-114418095D01*
X82637333Y-114513333D01*
X82684952Y-114560952D01*
X82780190Y-114608571D01*
X83113523Y-114608571D01*
X82161142Y-114227619D02*
X82113523Y-114180000D01*
X82018285Y-114132380D01*
X81780190Y-114132380D01*
X81684952Y-114180000D01*
X81637333Y-114227619D01*
X81589714Y-114322857D01*
X81589714Y-114418095D01*
X81637333Y-114560952D01*
X82208761Y-115132380D01*
X81589714Y-115132380D01*
M02*
