G04 #@! TF.GenerationSoftware,KiCad,Pcbnew,(5.1.5-0-10_14)*
G04 #@! TF.CreationDate,2020-12-05T17:11:41-05:00*
G04 #@! TF.ProjectId,quantar-interface,7175616e-7461-4722-9d69-6e7465726661,rev?*
G04 #@! TF.SameCoordinates,Original*
G04 #@! TF.FileFunction,Paste,Bot*
G04 #@! TF.FilePolarity,Positive*
%FSLAX46Y46*%
G04 Gerber Fmt 4.6, Leading zero omitted, Abs format (unit mm)*
G04 Created by KiCad (PCBNEW (5.1.5-0-10_14)) date 2020-12-05 17:11:41*
%MOMM*%
%LPD*%
G04 APERTURE LIST*
%ADD10C,0.100000*%
%ADD11R,1.000000X1.000000*%
%ADD12R,0.600000X0.700000*%
G04 APERTURE END LIST*
D10*
G36*
X116093504Y-132476204D02*
G01*
X116117773Y-132479804D01*
X116141571Y-132485765D01*
X116164671Y-132494030D01*
X116186849Y-132504520D01*
X116207893Y-132517133D01*
X116227598Y-132531747D01*
X116245777Y-132548223D01*
X116262253Y-132566402D01*
X116276867Y-132586107D01*
X116289480Y-132607151D01*
X116299970Y-132629329D01*
X116308235Y-132652429D01*
X116314196Y-132676227D01*
X116317796Y-132700496D01*
X116319000Y-132725000D01*
X116319000Y-133975000D01*
X116317796Y-133999504D01*
X116314196Y-134023773D01*
X116308235Y-134047571D01*
X116299970Y-134070671D01*
X116289480Y-134092849D01*
X116276867Y-134113893D01*
X116262253Y-134133598D01*
X116245777Y-134151777D01*
X116227598Y-134168253D01*
X116207893Y-134182867D01*
X116186849Y-134195480D01*
X116164671Y-134205970D01*
X116141571Y-134214235D01*
X116117773Y-134220196D01*
X116093504Y-134223796D01*
X116069000Y-134225000D01*
X115144000Y-134225000D01*
X115119496Y-134223796D01*
X115095227Y-134220196D01*
X115071429Y-134214235D01*
X115048329Y-134205970D01*
X115026151Y-134195480D01*
X115005107Y-134182867D01*
X114985402Y-134168253D01*
X114967223Y-134151777D01*
X114950747Y-134133598D01*
X114936133Y-134113893D01*
X114923520Y-134092849D01*
X114913030Y-134070671D01*
X114904765Y-134047571D01*
X114898804Y-134023773D01*
X114895204Y-133999504D01*
X114894000Y-133975000D01*
X114894000Y-132725000D01*
X114895204Y-132700496D01*
X114898804Y-132676227D01*
X114904765Y-132652429D01*
X114913030Y-132629329D01*
X114923520Y-132607151D01*
X114936133Y-132586107D01*
X114950747Y-132566402D01*
X114967223Y-132548223D01*
X114985402Y-132531747D01*
X115005107Y-132517133D01*
X115026151Y-132504520D01*
X115048329Y-132494030D01*
X115071429Y-132485765D01*
X115095227Y-132479804D01*
X115119496Y-132476204D01*
X115144000Y-132475000D01*
X116069000Y-132475000D01*
X116093504Y-132476204D01*
G37*
G36*
X119068504Y-132476204D02*
G01*
X119092773Y-132479804D01*
X119116571Y-132485765D01*
X119139671Y-132494030D01*
X119161849Y-132504520D01*
X119182893Y-132517133D01*
X119202598Y-132531747D01*
X119220777Y-132548223D01*
X119237253Y-132566402D01*
X119251867Y-132586107D01*
X119264480Y-132607151D01*
X119274970Y-132629329D01*
X119283235Y-132652429D01*
X119289196Y-132676227D01*
X119292796Y-132700496D01*
X119294000Y-132725000D01*
X119294000Y-133975000D01*
X119292796Y-133999504D01*
X119289196Y-134023773D01*
X119283235Y-134047571D01*
X119274970Y-134070671D01*
X119264480Y-134092849D01*
X119251867Y-134113893D01*
X119237253Y-134133598D01*
X119220777Y-134151777D01*
X119202598Y-134168253D01*
X119182893Y-134182867D01*
X119161849Y-134195480D01*
X119139671Y-134205970D01*
X119116571Y-134214235D01*
X119092773Y-134220196D01*
X119068504Y-134223796D01*
X119044000Y-134225000D01*
X118119000Y-134225000D01*
X118094496Y-134223796D01*
X118070227Y-134220196D01*
X118046429Y-134214235D01*
X118023329Y-134205970D01*
X118001151Y-134195480D01*
X117980107Y-134182867D01*
X117960402Y-134168253D01*
X117942223Y-134151777D01*
X117925747Y-134133598D01*
X117911133Y-134113893D01*
X117898520Y-134092849D01*
X117888030Y-134070671D01*
X117879765Y-134047571D01*
X117873804Y-134023773D01*
X117870204Y-133999504D01*
X117869000Y-133975000D01*
X117869000Y-132725000D01*
X117870204Y-132700496D01*
X117873804Y-132676227D01*
X117879765Y-132652429D01*
X117888030Y-132629329D01*
X117898520Y-132607151D01*
X117911133Y-132586107D01*
X117925747Y-132566402D01*
X117942223Y-132548223D01*
X117960402Y-132531747D01*
X117980107Y-132517133D01*
X118001151Y-132504520D01*
X118023329Y-132494030D01*
X118046429Y-132485765D01*
X118070227Y-132479804D01*
X118094496Y-132476204D01*
X118119000Y-132475000D01*
X119044000Y-132475000D01*
X119068504Y-132476204D01*
G37*
D11*
X188976000Y-132822000D03*
X188976000Y-130322000D03*
X188976000Y-124928000D03*
X188976000Y-122428000D03*
X198628000Y-128798000D03*
X198628000Y-131298000D03*
X198628000Y-123972000D03*
X198628000Y-126472000D03*
D12*
X110874000Y-146050000D03*
X109474000Y-146050000D03*
D10*
G36*
X154144505Y-131751204D02*
G01*
X154168773Y-131754804D01*
X154192572Y-131760765D01*
X154215671Y-131769030D01*
X154237850Y-131779520D01*
X154258893Y-131792132D01*
X154278599Y-131806747D01*
X154296777Y-131823223D01*
X154313253Y-131841401D01*
X154327868Y-131861107D01*
X154340480Y-131882150D01*
X154350970Y-131904329D01*
X154359235Y-131927428D01*
X154365196Y-131951227D01*
X154368796Y-131975495D01*
X154370000Y-131999999D01*
X154370000Y-132650001D01*
X154368796Y-132674505D01*
X154365196Y-132698773D01*
X154359235Y-132722572D01*
X154350970Y-132745671D01*
X154340480Y-132767850D01*
X154327868Y-132788893D01*
X154313253Y-132808599D01*
X154296777Y-132826777D01*
X154278599Y-132843253D01*
X154258893Y-132857868D01*
X154237850Y-132870480D01*
X154215671Y-132880970D01*
X154192572Y-132889235D01*
X154168773Y-132895196D01*
X154144505Y-132898796D01*
X154120001Y-132900000D01*
X153219999Y-132900000D01*
X153195495Y-132898796D01*
X153171227Y-132895196D01*
X153147428Y-132889235D01*
X153124329Y-132880970D01*
X153102150Y-132870480D01*
X153081107Y-132857868D01*
X153061401Y-132843253D01*
X153043223Y-132826777D01*
X153026747Y-132808599D01*
X153012132Y-132788893D01*
X152999520Y-132767850D01*
X152989030Y-132745671D01*
X152980765Y-132722572D01*
X152974804Y-132698773D01*
X152971204Y-132674505D01*
X152970000Y-132650001D01*
X152970000Y-131999999D01*
X152971204Y-131975495D01*
X152974804Y-131951227D01*
X152980765Y-131927428D01*
X152989030Y-131904329D01*
X152999520Y-131882150D01*
X153012132Y-131861107D01*
X153026747Y-131841401D01*
X153043223Y-131823223D01*
X153061401Y-131806747D01*
X153081107Y-131792132D01*
X153102150Y-131779520D01*
X153124329Y-131769030D01*
X153147428Y-131760765D01*
X153171227Y-131754804D01*
X153195495Y-131751204D01*
X153219999Y-131750000D01*
X154120001Y-131750000D01*
X154144505Y-131751204D01*
G37*
G36*
X154144505Y-133801204D02*
G01*
X154168773Y-133804804D01*
X154192572Y-133810765D01*
X154215671Y-133819030D01*
X154237850Y-133829520D01*
X154258893Y-133842132D01*
X154278599Y-133856747D01*
X154296777Y-133873223D01*
X154313253Y-133891401D01*
X154327868Y-133911107D01*
X154340480Y-133932150D01*
X154350970Y-133954329D01*
X154359235Y-133977428D01*
X154365196Y-134001227D01*
X154368796Y-134025495D01*
X154370000Y-134049999D01*
X154370000Y-134700001D01*
X154368796Y-134724505D01*
X154365196Y-134748773D01*
X154359235Y-134772572D01*
X154350970Y-134795671D01*
X154340480Y-134817850D01*
X154327868Y-134838893D01*
X154313253Y-134858599D01*
X154296777Y-134876777D01*
X154278599Y-134893253D01*
X154258893Y-134907868D01*
X154237850Y-134920480D01*
X154215671Y-134930970D01*
X154192572Y-134939235D01*
X154168773Y-134945196D01*
X154144505Y-134948796D01*
X154120001Y-134950000D01*
X153219999Y-134950000D01*
X153195495Y-134948796D01*
X153171227Y-134945196D01*
X153147428Y-134939235D01*
X153124329Y-134930970D01*
X153102150Y-134920480D01*
X153081107Y-134907868D01*
X153061401Y-134893253D01*
X153043223Y-134876777D01*
X153026747Y-134858599D01*
X153012132Y-134838893D01*
X152999520Y-134817850D01*
X152989030Y-134795671D01*
X152980765Y-134772572D01*
X152974804Y-134748773D01*
X152971204Y-134724505D01*
X152970000Y-134700001D01*
X152970000Y-134049999D01*
X152971204Y-134025495D01*
X152974804Y-134001227D01*
X152980765Y-133977428D01*
X152989030Y-133954329D01*
X152999520Y-133932150D01*
X153012132Y-133911107D01*
X153026747Y-133891401D01*
X153043223Y-133873223D01*
X153061401Y-133856747D01*
X153081107Y-133842132D01*
X153102150Y-133829520D01*
X153124329Y-133819030D01*
X153147428Y-133810765D01*
X153171227Y-133804804D01*
X153195495Y-133801204D01*
X153219999Y-133800000D01*
X154120001Y-133800000D01*
X154144505Y-133801204D01*
G37*
G36*
X83652505Y-88963204D02*
G01*
X83676773Y-88966804D01*
X83700572Y-88972765D01*
X83723671Y-88981030D01*
X83745850Y-88991520D01*
X83766893Y-89004132D01*
X83786599Y-89018747D01*
X83804777Y-89035223D01*
X83821253Y-89053401D01*
X83835868Y-89073107D01*
X83848480Y-89094150D01*
X83858970Y-89116329D01*
X83867235Y-89139428D01*
X83873196Y-89163227D01*
X83876796Y-89187495D01*
X83878000Y-89211999D01*
X83878000Y-90112001D01*
X83876796Y-90136505D01*
X83873196Y-90160773D01*
X83867235Y-90184572D01*
X83858970Y-90207671D01*
X83848480Y-90229850D01*
X83835868Y-90250893D01*
X83821253Y-90270599D01*
X83804777Y-90288777D01*
X83786599Y-90305253D01*
X83766893Y-90319868D01*
X83745850Y-90332480D01*
X83723671Y-90342970D01*
X83700572Y-90351235D01*
X83676773Y-90357196D01*
X83652505Y-90360796D01*
X83628001Y-90362000D01*
X82977999Y-90362000D01*
X82953495Y-90360796D01*
X82929227Y-90357196D01*
X82905428Y-90351235D01*
X82882329Y-90342970D01*
X82860150Y-90332480D01*
X82839107Y-90319868D01*
X82819401Y-90305253D01*
X82801223Y-90288777D01*
X82784747Y-90270599D01*
X82770132Y-90250893D01*
X82757520Y-90229850D01*
X82747030Y-90207671D01*
X82738765Y-90184572D01*
X82732804Y-90160773D01*
X82729204Y-90136505D01*
X82728000Y-90112001D01*
X82728000Y-89211999D01*
X82729204Y-89187495D01*
X82732804Y-89163227D01*
X82738765Y-89139428D01*
X82747030Y-89116329D01*
X82757520Y-89094150D01*
X82770132Y-89073107D01*
X82784747Y-89053401D01*
X82801223Y-89035223D01*
X82819401Y-89018747D01*
X82839107Y-89004132D01*
X82860150Y-88991520D01*
X82882329Y-88981030D01*
X82905428Y-88972765D01*
X82929227Y-88966804D01*
X82953495Y-88963204D01*
X82977999Y-88962000D01*
X83628001Y-88962000D01*
X83652505Y-88963204D01*
G37*
G36*
X85702505Y-88963204D02*
G01*
X85726773Y-88966804D01*
X85750572Y-88972765D01*
X85773671Y-88981030D01*
X85795850Y-88991520D01*
X85816893Y-89004132D01*
X85836599Y-89018747D01*
X85854777Y-89035223D01*
X85871253Y-89053401D01*
X85885868Y-89073107D01*
X85898480Y-89094150D01*
X85908970Y-89116329D01*
X85917235Y-89139428D01*
X85923196Y-89163227D01*
X85926796Y-89187495D01*
X85928000Y-89211999D01*
X85928000Y-90112001D01*
X85926796Y-90136505D01*
X85923196Y-90160773D01*
X85917235Y-90184572D01*
X85908970Y-90207671D01*
X85898480Y-90229850D01*
X85885868Y-90250893D01*
X85871253Y-90270599D01*
X85854777Y-90288777D01*
X85836599Y-90305253D01*
X85816893Y-90319868D01*
X85795850Y-90332480D01*
X85773671Y-90342970D01*
X85750572Y-90351235D01*
X85726773Y-90357196D01*
X85702505Y-90360796D01*
X85678001Y-90362000D01*
X85027999Y-90362000D01*
X85003495Y-90360796D01*
X84979227Y-90357196D01*
X84955428Y-90351235D01*
X84932329Y-90342970D01*
X84910150Y-90332480D01*
X84889107Y-90319868D01*
X84869401Y-90305253D01*
X84851223Y-90288777D01*
X84834747Y-90270599D01*
X84820132Y-90250893D01*
X84807520Y-90229850D01*
X84797030Y-90207671D01*
X84788765Y-90184572D01*
X84782804Y-90160773D01*
X84779204Y-90136505D01*
X84778000Y-90112001D01*
X84778000Y-89211999D01*
X84779204Y-89187495D01*
X84782804Y-89163227D01*
X84788765Y-89139428D01*
X84797030Y-89116329D01*
X84807520Y-89094150D01*
X84820132Y-89073107D01*
X84834747Y-89053401D01*
X84851223Y-89035223D01*
X84869401Y-89018747D01*
X84889107Y-89004132D01*
X84910150Y-88991520D01*
X84932329Y-88981030D01*
X84955428Y-88972765D01*
X84979227Y-88966804D01*
X85003495Y-88963204D01*
X85027999Y-88962000D01*
X85678001Y-88962000D01*
X85702505Y-88963204D01*
G37*
G36*
X82128505Y-112331204D02*
G01*
X82152773Y-112334804D01*
X82176572Y-112340765D01*
X82199671Y-112349030D01*
X82221850Y-112359520D01*
X82242893Y-112372132D01*
X82262599Y-112386747D01*
X82280777Y-112403223D01*
X82297253Y-112421401D01*
X82311868Y-112441107D01*
X82324480Y-112462150D01*
X82334970Y-112484329D01*
X82343235Y-112507428D01*
X82349196Y-112531227D01*
X82352796Y-112555495D01*
X82354000Y-112579999D01*
X82354000Y-113480001D01*
X82352796Y-113504505D01*
X82349196Y-113528773D01*
X82343235Y-113552572D01*
X82334970Y-113575671D01*
X82324480Y-113597850D01*
X82311868Y-113618893D01*
X82297253Y-113638599D01*
X82280777Y-113656777D01*
X82262599Y-113673253D01*
X82242893Y-113687868D01*
X82221850Y-113700480D01*
X82199671Y-113710970D01*
X82176572Y-113719235D01*
X82152773Y-113725196D01*
X82128505Y-113728796D01*
X82104001Y-113730000D01*
X81453999Y-113730000D01*
X81429495Y-113728796D01*
X81405227Y-113725196D01*
X81381428Y-113719235D01*
X81358329Y-113710970D01*
X81336150Y-113700480D01*
X81315107Y-113687868D01*
X81295401Y-113673253D01*
X81277223Y-113656777D01*
X81260747Y-113638599D01*
X81246132Y-113618893D01*
X81233520Y-113597850D01*
X81223030Y-113575671D01*
X81214765Y-113552572D01*
X81208804Y-113528773D01*
X81205204Y-113504505D01*
X81204000Y-113480001D01*
X81204000Y-112579999D01*
X81205204Y-112555495D01*
X81208804Y-112531227D01*
X81214765Y-112507428D01*
X81223030Y-112484329D01*
X81233520Y-112462150D01*
X81246132Y-112441107D01*
X81260747Y-112421401D01*
X81277223Y-112403223D01*
X81295401Y-112386747D01*
X81315107Y-112372132D01*
X81336150Y-112359520D01*
X81358329Y-112349030D01*
X81381428Y-112340765D01*
X81405227Y-112334804D01*
X81429495Y-112331204D01*
X81453999Y-112330000D01*
X82104001Y-112330000D01*
X82128505Y-112331204D01*
G37*
G36*
X84178505Y-112331204D02*
G01*
X84202773Y-112334804D01*
X84226572Y-112340765D01*
X84249671Y-112349030D01*
X84271850Y-112359520D01*
X84292893Y-112372132D01*
X84312599Y-112386747D01*
X84330777Y-112403223D01*
X84347253Y-112421401D01*
X84361868Y-112441107D01*
X84374480Y-112462150D01*
X84384970Y-112484329D01*
X84393235Y-112507428D01*
X84399196Y-112531227D01*
X84402796Y-112555495D01*
X84404000Y-112579999D01*
X84404000Y-113480001D01*
X84402796Y-113504505D01*
X84399196Y-113528773D01*
X84393235Y-113552572D01*
X84384970Y-113575671D01*
X84374480Y-113597850D01*
X84361868Y-113618893D01*
X84347253Y-113638599D01*
X84330777Y-113656777D01*
X84312599Y-113673253D01*
X84292893Y-113687868D01*
X84271850Y-113700480D01*
X84249671Y-113710970D01*
X84226572Y-113719235D01*
X84202773Y-113725196D01*
X84178505Y-113728796D01*
X84154001Y-113730000D01*
X83503999Y-113730000D01*
X83479495Y-113728796D01*
X83455227Y-113725196D01*
X83431428Y-113719235D01*
X83408329Y-113710970D01*
X83386150Y-113700480D01*
X83365107Y-113687868D01*
X83345401Y-113673253D01*
X83327223Y-113656777D01*
X83310747Y-113638599D01*
X83296132Y-113618893D01*
X83283520Y-113597850D01*
X83273030Y-113575671D01*
X83264765Y-113552572D01*
X83258804Y-113528773D01*
X83255204Y-113504505D01*
X83254000Y-113480001D01*
X83254000Y-112579999D01*
X83255204Y-112555495D01*
X83258804Y-112531227D01*
X83264765Y-112507428D01*
X83273030Y-112484329D01*
X83283520Y-112462150D01*
X83296132Y-112441107D01*
X83310747Y-112421401D01*
X83327223Y-112403223D01*
X83345401Y-112386747D01*
X83365107Y-112372132D01*
X83386150Y-112359520D01*
X83408329Y-112349030D01*
X83431428Y-112340765D01*
X83455227Y-112334804D01*
X83479495Y-112331204D01*
X83503999Y-112330000D01*
X84154001Y-112330000D01*
X84178505Y-112331204D01*
G37*
M02*
