G04 #@! TF.GenerationSoftware,KiCad,Pcbnew,(5.1.5-0-10_14)*
G04 #@! TF.CreationDate,2020-11-15T00:29:35-05:00*
G04 #@! TF.ProjectId,quantar-interface,7175616e-7461-4722-9d69-6e7465726661,rev?*
G04 #@! TF.SameCoordinates,Original*
G04 #@! TF.FileFunction,Soldermask,Bot*
G04 #@! TF.FilePolarity,Negative*
%FSLAX46Y46*%
G04 Gerber Fmt 4.6, Leading zero omitted, Abs format (unit mm)*
G04 Created by KiCad (PCBNEW (5.1.5-0-10_14)) date 2020-11-15 00:29:35*
%MOMM*%
%LPD*%
G04 APERTURE LIST*
%ADD10C,0.100000*%
G04 APERTURE END LIST*
D10*
G36*
X199301632Y-142916677D02*
G01*
X199555317Y-143021757D01*
X200038868Y-143222050D01*
X200702362Y-143665383D01*
X201266617Y-144229638D01*
X201709950Y-144893132D01*
X201811533Y-145138376D01*
X202015323Y-145630368D01*
X202171000Y-146413010D01*
X202171000Y-147210990D01*
X202015323Y-147993632D01*
X201888833Y-148299005D01*
X201709950Y-148730868D01*
X201266617Y-149394362D01*
X200702362Y-149958617D01*
X200038868Y-150401950D01*
X199607005Y-150580833D01*
X199301632Y-150707323D01*
X198518990Y-150863000D01*
X197721010Y-150863000D01*
X196938368Y-150707323D01*
X196632995Y-150580833D01*
X196201132Y-150401950D01*
X195537638Y-149958617D01*
X194973383Y-149394362D01*
X194530050Y-148730868D01*
X194351167Y-148299005D01*
X194224677Y-147993632D01*
X194069000Y-147210990D01*
X194069000Y-146413010D01*
X194224677Y-145630368D01*
X194428467Y-145138376D01*
X194530050Y-144893132D01*
X194973383Y-144229638D01*
X195537638Y-143665383D01*
X196201132Y-143222050D01*
X196684683Y-143021757D01*
X196938368Y-142916677D01*
X197721010Y-142761000D01*
X198518990Y-142761000D01*
X199301632Y-142916677D01*
G37*
G36*
X82715632Y-142916677D02*
G01*
X82969317Y-143021757D01*
X83452868Y-143222050D01*
X84116362Y-143665383D01*
X84680617Y-144229638D01*
X85123950Y-144893132D01*
X85225533Y-145138376D01*
X85429323Y-145630368D01*
X85585000Y-146413010D01*
X85585000Y-147210990D01*
X85429323Y-147993632D01*
X85302833Y-148299005D01*
X85123950Y-148730868D01*
X84680617Y-149394362D01*
X84116362Y-149958617D01*
X83452868Y-150401950D01*
X83021005Y-150580833D01*
X82715632Y-150707323D01*
X81932990Y-150863000D01*
X81135010Y-150863000D01*
X80352368Y-150707323D01*
X80046995Y-150580833D01*
X79615132Y-150401950D01*
X78951638Y-149958617D01*
X78387383Y-149394362D01*
X77944050Y-148730868D01*
X77765167Y-148299005D01*
X77638677Y-147993632D01*
X77483000Y-147210990D01*
X77483000Y-146413010D01*
X77638677Y-145630368D01*
X77842467Y-145138376D01*
X77944050Y-144893132D01*
X78387383Y-144229638D01*
X78951638Y-143665383D01*
X79615132Y-143222050D01*
X80098683Y-143021757D01*
X80352368Y-142916677D01*
X81135010Y-142761000D01*
X81932990Y-142761000D01*
X82715632Y-142916677D01*
G37*
G36*
X125869000Y-150253000D02*
G01*
X124067000Y-150253000D01*
X124067000Y-148451000D01*
X125869000Y-148451000D01*
X125869000Y-150253000D01*
G37*
G36*
X183117142Y-146538242D02*
G01*
X183265101Y-146599529D01*
X183398255Y-146688499D01*
X183511501Y-146801745D01*
X183600471Y-146934899D01*
X183661758Y-147082858D01*
X183693000Y-147239925D01*
X183693000Y-147400075D01*
X183661758Y-147557142D01*
X183600471Y-147705101D01*
X183511501Y-147838255D01*
X183398255Y-147951501D01*
X183265101Y-148040471D01*
X183117142Y-148101758D01*
X182960075Y-148133000D01*
X182799925Y-148133000D01*
X182642858Y-148101758D01*
X182494899Y-148040471D01*
X182361745Y-147951501D01*
X182248499Y-147838255D01*
X182159529Y-147705101D01*
X182098242Y-147557142D01*
X182067000Y-147400075D01*
X182067000Y-147239925D01*
X182098242Y-147082858D01*
X182159529Y-146934899D01*
X182248499Y-146801745D01*
X182361745Y-146688499D01*
X182494899Y-146599529D01*
X182642858Y-146538242D01*
X182799925Y-146507000D01*
X182960075Y-146507000D01*
X183117142Y-146538242D01*
G37*
G36*
X172957142Y-146538242D02*
G01*
X173105101Y-146599529D01*
X173238255Y-146688499D01*
X173351501Y-146801745D01*
X173440471Y-146934899D01*
X173501758Y-147082858D01*
X173533000Y-147239925D01*
X173533000Y-147400075D01*
X173501758Y-147557142D01*
X173440471Y-147705101D01*
X173351501Y-147838255D01*
X173238255Y-147951501D01*
X173105101Y-148040471D01*
X172957142Y-148101758D01*
X172800075Y-148133000D01*
X172639925Y-148133000D01*
X172482858Y-148101758D01*
X172334899Y-148040471D01*
X172201745Y-147951501D01*
X172088499Y-147838255D01*
X171999529Y-147705101D01*
X171938242Y-147557142D01*
X171907000Y-147400075D01*
X171907000Y-147239925D01*
X171938242Y-147082858D01*
X171999529Y-146934899D01*
X172088499Y-146801745D01*
X172201745Y-146688499D01*
X172334899Y-146599529D01*
X172482858Y-146538242D01*
X172639925Y-146507000D01*
X172800075Y-146507000D01*
X172957142Y-146538242D01*
G37*
G36*
X125081512Y-145915927D02*
G01*
X125230812Y-145945624D01*
X125394784Y-146013544D01*
X125542354Y-146112147D01*
X125667853Y-146237646D01*
X125766456Y-146385216D01*
X125834376Y-146549188D01*
X125869000Y-146723259D01*
X125869000Y-146900741D01*
X125834376Y-147074812D01*
X125766456Y-147238784D01*
X125667853Y-147386354D01*
X125542354Y-147511853D01*
X125394784Y-147610456D01*
X125230812Y-147678376D01*
X125081512Y-147708073D01*
X125056742Y-147713000D01*
X124879258Y-147713000D01*
X124854488Y-147708073D01*
X124705188Y-147678376D01*
X124541216Y-147610456D01*
X124393646Y-147511853D01*
X124268147Y-147386354D01*
X124169544Y-147238784D01*
X124101624Y-147074812D01*
X124067000Y-146900741D01*
X124067000Y-146723259D01*
X124101624Y-146549188D01*
X124169544Y-146385216D01*
X124268147Y-146237646D01*
X124393646Y-146112147D01*
X124541216Y-146013544D01*
X124705188Y-145945624D01*
X124854488Y-145915927D01*
X124879258Y-145911000D01*
X125056742Y-145911000D01*
X125081512Y-145915927D01*
G37*
G36*
X111225000Y-146451000D02*
G01*
X110523000Y-146451000D01*
X110523000Y-145649000D01*
X111225000Y-145649000D01*
X111225000Y-146451000D01*
G37*
G36*
X109825000Y-146451000D02*
G01*
X109123000Y-146451000D01*
X109123000Y-145649000D01*
X109825000Y-145649000D01*
X109825000Y-146451000D01*
G37*
G36*
X125081512Y-143375927D02*
G01*
X125230812Y-143405624D01*
X125394784Y-143473544D01*
X125542354Y-143572147D01*
X125667853Y-143697646D01*
X125766456Y-143845216D01*
X125834376Y-144009188D01*
X125869000Y-144183259D01*
X125869000Y-144360741D01*
X125834376Y-144534812D01*
X125766456Y-144698784D01*
X125667853Y-144846354D01*
X125542354Y-144971853D01*
X125394784Y-145070456D01*
X125230812Y-145138376D01*
X125081512Y-145168073D01*
X125056742Y-145173000D01*
X124879258Y-145173000D01*
X124854488Y-145168073D01*
X124705188Y-145138376D01*
X124541216Y-145070456D01*
X124393646Y-144971853D01*
X124268147Y-144846354D01*
X124169544Y-144698784D01*
X124101624Y-144534812D01*
X124067000Y-144360741D01*
X124067000Y-144183259D01*
X124101624Y-144009188D01*
X124169544Y-143845216D01*
X124268147Y-143697646D01*
X124393646Y-143572147D01*
X124541216Y-143473544D01*
X124705188Y-143405624D01*
X124854488Y-143375927D01*
X124879258Y-143371000D01*
X125056742Y-143371000D01*
X125081512Y-143375927D01*
G37*
G36*
X142111589Y-141986876D02*
G01*
X142210893Y-142006629D01*
X142351206Y-142064748D01*
X142477484Y-142149125D01*
X142584875Y-142256516D01*
X142669252Y-142382794D01*
X142727371Y-142523107D01*
X142757000Y-142672063D01*
X142757000Y-142823937D01*
X142727371Y-142972893D01*
X142669252Y-143113206D01*
X142584875Y-143239484D01*
X142477484Y-143346875D01*
X142351206Y-143431252D01*
X142210893Y-143489371D01*
X142111589Y-143509124D01*
X142061938Y-143519000D01*
X141910062Y-143519000D01*
X141860411Y-143509124D01*
X141761107Y-143489371D01*
X141620794Y-143431252D01*
X141494516Y-143346875D01*
X141387125Y-143239484D01*
X141302748Y-143113206D01*
X141244629Y-142972893D01*
X141215000Y-142823937D01*
X141215000Y-142672063D01*
X141244629Y-142523107D01*
X141302748Y-142382794D01*
X141387125Y-142256516D01*
X141494516Y-142149125D01*
X141620794Y-142064748D01*
X141761107Y-142006629D01*
X141860411Y-141986876D01*
X141910062Y-141977000D01*
X142061938Y-141977000D01*
X142111589Y-141986876D01*
G37*
G36*
X139571589Y-141986876D02*
G01*
X139670893Y-142006629D01*
X139811206Y-142064748D01*
X139937484Y-142149125D01*
X140044875Y-142256516D01*
X140129252Y-142382794D01*
X140187371Y-142523107D01*
X140217000Y-142672063D01*
X140217000Y-142823937D01*
X140187371Y-142972893D01*
X140129252Y-143113206D01*
X140044875Y-143239484D01*
X139937484Y-143346875D01*
X139811206Y-143431252D01*
X139670893Y-143489371D01*
X139571589Y-143509124D01*
X139521938Y-143519000D01*
X139370062Y-143519000D01*
X139320411Y-143509124D01*
X139221107Y-143489371D01*
X139080794Y-143431252D01*
X138954516Y-143346875D01*
X138847125Y-143239484D01*
X138762748Y-143113206D01*
X138704629Y-142972893D01*
X138675000Y-142823937D01*
X138675000Y-142672063D01*
X138704629Y-142523107D01*
X138762748Y-142382794D01*
X138847125Y-142256516D01*
X138954516Y-142149125D01*
X139080794Y-142064748D01*
X139221107Y-142006629D01*
X139320411Y-141986876D01*
X139370062Y-141977000D01*
X139521938Y-141977000D01*
X139571589Y-141986876D01*
G37*
G36*
X137031589Y-141986876D02*
G01*
X137130893Y-142006629D01*
X137271206Y-142064748D01*
X137397484Y-142149125D01*
X137504875Y-142256516D01*
X137589252Y-142382794D01*
X137647371Y-142523107D01*
X137677000Y-142672063D01*
X137677000Y-142823937D01*
X137647371Y-142972893D01*
X137589252Y-143113206D01*
X137504875Y-143239484D01*
X137397484Y-143346875D01*
X137271206Y-143431252D01*
X137130893Y-143489371D01*
X137031589Y-143509124D01*
X136981938Y-143519000D01*
X136830062Y-143519000D01*
X136780411Y-143509124D01*
X136681107Y-143489371D01*
X136540794Y-143431252D01*
X136414516Y-143346875D01*
X136307125Y-143239484D01*
X136222748Y-143113206D01*
X136164629Y-142972893D01*
X136135000Y-142823937D01*
X136135000Y-142672063D01*
X136164629Y-142523107D01*
X136222748Y-142382794D01*
X136307125Y-142256516D01*
X136414516Y-142149125D01*
X136540794Y-142064748D01*
X136681107Y-142006629D01*
X136780411Y-141986876D01*
X136830062Y-141977000D01*
X136981938Y-141977000D01*
X137031589Y-141986876D01*
G37*
G36*
X172957142Y-141458242D02*
G01*
X173105101Y-141519529D01*
X173238255Y-141608499D01*
X173351501Y-141721745D01*
X173440471Y-141854899D01*
X173501758Y-142002858D01*
X173533000Y-142159925D01*
X173533000Y-142320075D01*
X173501758Y-142477142D01*
X173440471Y-142625101D01*
X173351501Y-142758255D01*
X173238255Y-142871501D01*
X173105101Y-142960471D01*
X172957142Y-143021758D01*
X172800075Y-143053000D01*
X172639925Y-143053000D01*
X172482858Y-143021758D01*
X172334899Y-142960471D01*
X172201745Y-142871501D01*
X172088499Y-142758255D01*
X171999529Y-142625101D01*
X171938242Y-142477142D01*
X171907000Y-142320075D01*
X171907000Y-142159925D01*
X171938242Y-142002858D01*
X171999529Y-141854899D01*
X172088499Y-141721745D01*
X172201745Y-141608499D01*
X172334899Y-141519529D01*
X172482858Y-141458242D01*
X172639925Y-141427000D01*
X172800075Y-141427000D01*
X172957142Y-141458242D01*
G37*
G36*
X183117142Y-141458242D02*
G01*
X183265101Y-141519529D01*
X183398255Y-141608499D01*
X183511501Y-141721745D01*
X183600471Y-141854899D01*
X183661758Y-142002858D01*
X183693000Y-142159925D01*
X183693000Y-142320075D01*
X183661758Y-142477142D01*
X183600471Y-142625101D01*
X183511501Y-142758255D01*
X183398255Y-142871501D01*
X183265101Y-142960471D01*
X183117142Y-143021758D01*
X182960075Y-143053000D01*
X182799925Y-143053000D01*
X182642858Y-143021758D01*
X182494899Y-142960471D01*
X182361745Y-142871501D01*
X182248499Y-142758255D01*
X182159529Y-142625101D01*
X182098242Y-142477142D01*
X182067000Y-142320075D01*
X182067000Y-142159925D01*
X182098242Y-142002858D01*
X182159529Y-141854899D01*
X182248499Y-141721745D01*
X182361745Y-141608499D01*
X182494899Y-141519529D01*
X182642858Y-141458242D01*
X182799925Y-141427000D01*
X182960075Y-141427000D01*
X183117142Y-141458242D01*
G37*
G36*
X183117142Y-136378242D02*
G01*
X183265101Y-136439529D01*
X183398255Y-136528499D01*
X183511501Y-136641745D01*
X183600471Y-136774899D01*
X183661758Y-136922858D01*
X183693000Y-137079925D01*
X183693000Y-137240075D01*
X183661758Y-137397142D01*
X183600471Y-137545101D01*
X183511501Y-137678255D01*
X183398255Y-137791501D01*
X183265101Y-137880471D01*
X183117142Y-137941758D01*
X182960075Y-137973000D01*
X182799925Y-137973000D01*
X182642858Y-137941758D01*
X182494899Y-137880471D01*
X182361745Y-137791501D01*
X182248499Y-137678255D01*
X182159529Y-137545101D01*
X182098242Y-137397142D01*
X182067000Y-137240075D01*
X182067000Y-137079925D01*
X182098242Y-136922858D01*
X182159529Y-136774899D01*
X182248499Y-136641745D01*
X182361745Y-136528499D01*
X182494899Y-136439529D01*
X182642858Y-136378242D01*
X182799925Y-136347000D01*
X182960075Y-136347000D01*
X183117142Y-136378242D01*
G37*
G36*
X172957142Y-136378242D02*
G01*
X173105101Y-136439529D01*
X173238255Y-136528499D01*
X173351501Y-136641745D01*
X173440471Y-136774899D01*
X173501758Y-136922858D01*
X173533000Y-137079925D01*
X173533000Y-137240075D01*
X173501758Y-137397142D01*
X173440471Y-137545101D01*
X173351501Y-137678255D01*
X173238255Y-137791501D01*
X173105101Y-137880471D01*
X172957142Y-137941758D01*
X172800075Y-137973000D01*
X172639925Y-137973000D01*
X172482858Y-137941758D01*
X172334899Y-137880471D01*
X172201745Y-137791501D01*
X172088499Y-137678255D01*
X171999529Y-137545101D01*
X171938242Y-137397142D01*
X171907000Y-137240075D01*
X171907000Y-137079925D01*
X171938242Y-136922858D01*
X171999529Y-136774899D01*
X172088499Y-136641745D01*
X172201745Y-136528499D01*
X172334899Y-136439529D01*
X172482858Y-136378242D01*
X172639925Y-136347000D01*
X172800075Y-136347000D01*
X172957142Y-136378242D01*
G37*
G36*
X142111589Y-134874876D02*
G01*
X142210893Y-134894629D01*
X142351206Y-134952748D01*
X142477484Y-135037125D01*
X142584875Y-135144516D01*
X142669252Y-135270794D01*
X142727371Y-135411107D01*
X142757000Y-135560063D01*
X142757000Y-135711937D01*
X142727371Y-135860893D01*
X142669252Y-136001206D01*
X142584875Y-136127484D01*
X142477484Y-136234875D01*
X142351206Y-136319252D01*
X142210893Y-136377371D01*
X142111589Y-136397124D01*
X142061938Y-136407000D01*
X141910062Y-136407000D01*
X141860411Y-136397124D01*
X141761107Y-136377371D01*
X141620794Y-136319252D01*
X141494516Y-136234875D01*
X141387125Y-136127484D01*
X141302748Y-136001206D01*
X141244629Y-135860893D01*
X141215000Y-135711937D01*
X141215000Y-135560063D01*
X141244629Y-135411107D01*
X141302748Y-135270794D01*
X141387125Y-135144516D01*
X141494516Y-135037125D01*
X141620794Y-134952748D01*
X141761107Y-134894629D01*
X141860411Y-134874876D01*
X141910062Y-134865000D01*
X142061938Y-134865000D01*
X142111589Y-134874876D01*
G37*
G36*
X139571589Y-134874876D02*
G01*
X139670893Y-134894629D01*
X139811206Y-134952748D01*
X139937484Y-135037125D01*
X140044875Y-135144516D01*
X140129252Y-135270794D01*
X140187371Y-135411107D01*
X140217000Y-135560063D01*
X140217000Y-135711937D01*
X140187371Y-135860893D01*
X140129252Y-136001206D01*
X140044875Y-136127484D01*
X139937484Y-136234875D01*
X139811206Y-136319252D01*
X139670893Y-136377371D01*
X139571589Y-136397124D01*
X139521938Y-136407000D01*
X139370062Y-136407000D01*
X139320411Y-136397124D01*
X139221107Y-136377371D01*
X139080794Y-136319252D01*
X138954516Y-136234875D01*
X138847125Y-136127484D01*
X138762748Y-136001206D01*
X138704629Y-135860893D01*
X138675000Y-135711937D01*
X138675000Y-135560063D01*
X138704629Y-135411107D01*
X138762748Y-135270794D01*
X138847125Y-135144516D01*
X138954516Y-135037125D01*
X139080794Y-134952748D01*
X139221107Y-134894629D01*
X139320411Y-134874876D01*
X139370062Y-134865000D01*
X139521938Y-134865000D01*
X139571589Y-134874876D01*
G37*
G36*
X137031589Y-134874876D02*
G01*
X137130893Y-134894629D01*
X137271206Y-134952748D01*
X137397484Y-135037125D01*
X137504875Y-135144516D01*
X137589252Y-135270794D01*
X137647371Y-135411107D01*
X137677000Y-135560063D01*
X137677000Y-135711937D01*
X137647371Y-135860893D01*
X137589252Y-136001206D01*
X137504875Y-136127484D01*
X137397484Y-136234875D01*
X137271206Y-136319252D01*
X137130893Y-136377371D01*
X137031589Y-136397124D01*
X136981938Y-136407000D01*
X136830062Y-136407000D01*
X136780411Y-136397124D01*
X136681107Y-136377371D01*
X136540794Y-136319252D01*
X136414516Y-136234875D01*
X136307125Y-136127484D01*
X136222748Y-136001206D01*
X136164629Y-135860893D01*
X136135000Y-135711937D01*
X136135000Y-135560063D01*
X136164629Y-135411107D01*
X136222748Y-135270794D01*
X136307125Y-135144516D01*
X136414516Y-135037125D01*
X136540794Y-134952748D01*
X136681107Y-134894629D01*
X136780411Y-134874876D01*
X136830062Y-134865000D01*
X136981938Y-134865000D01*
X137031589Y-134874876D01*
G37*
G36*
X196020915Y-133672934D02*
G01*
X196053424Y-133682795D01*
X196083382Y-133698809D01*
X196109641Y-133720359D01*
X196131191Y-133746618D01*
X196147205Y-133776576D01*
X196157066Y-133809085D01*
X196161000Y-133849029D01*
X196161000Y-135390971D01*
X196157066Y-135430915D01*
X196147205Y-135463424D01*
X196131191Y-135493382D01*
X196109641Y-135519641D01*
X196083382Y-135541191D01*
X196053424Y-135557205D01*
X196020915Y-135567066D01*
X195980971Y-135571000D01*
X192639029Y-135571000D01*
X192599085Y-135567066D01*
X192566576Y-135557205D01*
X192536618Y-135541191D01*
X192510359Y-135519641D01*
X192488809Y-135493382D01*
X192472795Y-135463424D01*
X192462934Y-135430915D01*
X192459000Y-135390971D01*
X192459000Y-133849029D01*
X192462934Y-133809085D01*
X192472795Y-133776576D01*
X192488809Y-133746618D01*
X192510359Y-133720359D01*
X192536618Y-133698809D01*
X192566576Y-133682795D01*
X192599085Y-133672934D01*
X192639029Y-133669000D01*
X195980971Y-133669000D01*
X196020915Y-133672934D01*
G37*
G36*
X154258674Y-133753465D02*
G01*
X154296367Y-133764899D01*
X154331103Y-133783466D01*
X154361548Y-133808452D01*
X154386534Y-133838897D01*
X154405101Y-133873633D01*
X154416535Y-133911326D01*
X154421000Y-133956661D01*
X154421000Y-134793339D01*
X154416535Y-134838674D01*
X154405101Y-134876367D01*
X154386534Y-134911103D01*
X154361548Y-134941548D01*
X154331103Y-134966534D01*
X154296367Y-134985101D01*
X154258674Y-134996535D01*
X154213339Y-135001000D01*
X153126661Y-135001000D01*
X153081326Y-134996535D01*
X153043633Y-134985101D01*
X153008897Y-134966534D01*
X152978452Y-134941548D01*
X152953466Y-134911103D01*
X152934899Y-134876367D01*
X152923465Y-134838674D01*
X152919000Y-134793339D01*
X152919000Y-133956661D01*
X152923465Y-133911326D01*
X152934899Y-133873633D01*
X152953466Y-133838897D01*
X152978452Y-133808452D01*
X153008897Y-133783466D01*
X153043633Y-133764899D01*
X153081326Y-133753465D01*
X153126661Y-133749000D01*
X154213339Y-133749000D01*
X154258674Y-133753465D01*
G37*
G36*
X119194562Y-132428181D02*
G01*
X119229481Y-132438774D01*
X119261663Y-132455976D01*
X119289873Y-132479127D01*
X119313024Y-132507337D01*
X119330226Y-132539519D01*
X119340819Y-132574438D01*
X119345000Y-132616895D01*
X119345000Y-134083105D01*
X119340819Y-134125562D01*
X119330226Y-134160481D01*
X119313024Y-134192663D01*
X119289873Y-134220873D01*
X119261663Y-134244024D01*
X119229481Y-134261226D01*
X119194562Y-134271819D01*
X119152105Y-134276000D01*
X118010895Y-134276000D01*
X117968438Y-134271819D01*
X117933519Y-134261226D01*
X117901337Y-134244024D01*
X117873127Y-134220873D01*
X117849976Y-134192663D01*
X117832774Y-134160481D01*
X117822181Y-134125562D01*
X117818000Y-134083105D01*
X117818000Y-132616895D01*
X117822181Y-132574438D01*
X117832774Y-132539519D01*
X117849976Y-132507337D01*
X117873127Y-132479127D01*
X117901337Y-132455976D01*
X117933519Y-132438774D01*
X117968438Y-132428181D01*
X118010895Y-132424000D01*
X119152105Y-132424000D01*
X119194562Y-132428181D01*
G37*
G36*
X116219562Y-132428181D02*
G01*
X116254481Y-132438774D01*
X116286663Y-132455976D01*
X116314873Y-132479127D01*
X116338024Y-132507337D01*
X116355226Y-132539519D01*
X116365819Y-132574438D01*
X116370000Y-132616895D01*
X116370000Y-134083105D01*
X116365819Y-134125562D01*
X116355226Y-134160481D01*
X116338024Y-134192663D01*
X116314873Y-134220873D01*
X116286663Y-134244024D01*
X116254481Y-134261226D01*
X116219562Y-134271819D01*
X116177105Y-134276000D01*
X115035895Y-134276000D01*
X114993438Y-134271819D01*
X114958519Y-134261226D01*
X114926337Y-134244024D01*
X114898127Y-134220873D01*
X114874976Y-134192663D01*
X114857774Y-134160481D01*
X114847181Y-134125562D01*
X114843000Y-134083105D01*
X114843000Y-132616895D01*
X114847181Y-132574438D01*
X114857774Y-132539519D01*
X114874976Y-132507337D01*
X114898127Y-132479127D01*
X114926337Y-132455976D01*
X114958519Y-132438774D01*
X114993438Y-132428181D01*
X115035895Y-132424000D01*
X116177105Y-132424000D01*
X116219562Y-132428181D01*
G37*
G36*
X189527000Y-133373000D02*
G01*
X188425000Y-133373000D01*
X188425000Y-132271000D01*
X189527000Y-132271000D01*
X189527000Y-133373000D01*
G37*
G36*
X154258674Y-131703465D02*
G01*
X154296367Y-131714899D01*
X154331103Y-131733466D01*
X154361548Y-131758452D01*
X154386534Y-131788897D01*
X154405101Y-131823633D01*
X154416535Y-131861326D01*
X154421000Y-131906661D01*
X154421000Y-132743339D01*
X154416535Y-132788674D01*
X154405101Y-132826367D01*
X154386534Y-132861103D01*
X154361548Y-132891548D01*
X154331103Y-132916534D01*
X154296367Y-132935101D01*
X154258674Y-132946535D01*
X154213339Y-132951000D01*
X153126661Y-132951000D01*
X153081326Y-132946535D01*
X153043633Y-132935101D01*
X153008897Y-132916534D01*
X152978452Y-132891548D01*
X152953466Y-132861103D01*
X152934899Y-132826367D01*
X152923465Y-132788674D01*
X152919000Y-132743339D01*
X152919000Y-131906661D01*
X152923465Y-131861326D01*
X152934899Y-131823633D01*
X152953466Y-131788897D01*
X152978452Y-131758452D01*
X153008897Y-131733466D01*
X153043633Y-131714899D01*
X153081326Y-131703465D01*
X153126661Y-131699000D01*
X154213339Y-131699000D01*
X154258674Y-131703465D01*
G37*
G36*
X195396425Y-130182760D02*
G01*
X195396428Y-130182761D01*
X195396429Y-130182761D01*
X195575693Y-130237140D01*
X195575696Y-130237142D01*
X195575697Y-130237142D01*
X195740903Y-130325446D01*
X195885712Y-130444288D01*
X196004554Y-130589097D01*
X196088954Y-130747000D01*
X196092860Y-130754307D01*
X196128865Y-130873000D01*
X196147240Y-130933575D01*
X196165601Y-131120000D01*
X196147240Y-131306425D01*
X196147239Y-131306428D01*
X196147239Y-131306429D01*
X196092860Y-131485693D01*
X196092858Y-131485696D01*
X196092858Y-131485697D01*
X196004554Y-131650903D01*
X195885712Y-131795712D01*
X195740903Y-131914554D01*
X195575697Y-132002858D01*
X195575693Y-132002860D01*
X195396429Y-132057239D01*
X195396428Y-132057239D01*
X195396425Y-132057240D01*
X195256718Y-132071000D01*
X193363282Y-132071000D01*
X193223575Y-132057240D01*
X193223572Y-132057239D01*
X193223571Y-132057239D01*
X193044307Y-132002860D01*
X193044303Y-132002858D01*
X192879097Y-131914554D01*
X192734288Y-131795712D01*
X192615446Y-131650903D01*
X192527142Y-131485697D01*
X192527142Y-131485696D01*
X192527140Y-131485693D01*
X192472761Y-131306429D01*
X192472761Y-131306428D01*
X192472760Y-131306425D01*
X192454399Y-131120000D01*
X192472760Y-130933575D01*
X192491135Y-130873000D01*
X192527140Y-130754307D01*
X192531046Y-130747000D01*
X192615446Y-130589097D01*
X192734288Y-130444288D01*
X192879097Y-130325446D01*
X193044303Y-130237142D01*
X193044304Y-130237142D01*
X193044307Y-130237140D01*
X193223571Y-130182761D01*
X193223572Y-130182761D01*
X193223575Y-130182760D01*
X193363282Y-130169000D01*
X195256718Y-130169000D01*
X195396425Y-130182760D01*
G37*
G36*
X199179000Y-131849000D02*
G01*
X198077000Y-131849000D01*
X198077000Y-130747000D01*
X199179000Y-130747000D01*
X199179000Y-131849000D01*
G37*
G36*
X189527000Y-130873000D02*
G01*
X188425000Y-130873000D01*
X188425000Y-129771000D01*
X189527000Y-129771000D01*
X189527000Y-130873000D01*
G37*
G36*
X183117142Y-128758242D02*
G01*
X183265101Y-128819529D01*
X183398255Y-128908499D01*
X183511501Y-129021745D01*
X183600471Y-129154899D01*
X183661758Y-129302858D01*
X183693000Y-129459925D01*
X183693000Y-129620075D01*
X183661758Y-129777142D01*
X183600471Y-129925101D01*
X183511501Y-130058255D01*
X183398255Y-130171501D01*
X183265101Y-130260471D01*
X183117142Y-130321758D01*
X182960075Y-130353000D01*
X182799925Y-130353000D01*
X182642858Y-130321758D01*
X182494899Y-130260471D01*
X182361745Y-130171501D01*
X182248499Y-130058255D01*
X182159529Y-129925101D01*
X182098242Y-129777142D01*
X182067000Y-129620075D01*
X182067000Y-129459925D01*
X182098242Y-129302858D01*
X182159529Y-129154899D01*
X182248499Y-129021745D01*
X182361745Y-128908499D01*
X182494899Y-128819529D01*
X182642858Y-128758242D01*
X182799925Y-128727000D01*
X182960075Y-128727000D01*
X183117142Y-128758242D01*
G37*
G36*
X172957142Y-128758242D02*
G01*
X173105101Y-128819529D01*
X173238255Y-128908499D01*
X173351501Y-129021745D01*
X173440471Y-129154899D01*
X173501758Y-129302858D01*
X173533000Y-129459925D01*
X173533000Y-129620075D01*
X173501758Y-129777142D01*
X173440471Y-129925101D01*
X173351501Y-130058255D01*
X173238255Y-130171501D01*
X173105101Y-130260471D01*
X172957142Y-130321758D01*
X172800075Y-130353000D01*
X172639925Y-130353000D01*
X172482858Y-130321758D01*
X172334899Y-130260471D01*
X172201745Y-130171501D01*
X172088499Y-130058255D01*
X171999529Y-129925101D01*
X171938242Y-129777142D01*
X171907000Y-129620075D01*
X171907000Y-129459925D01*
X171938242Y-129302858D01*
X171999529Y-129154899D01*
X172088499Y-129021745D01*
X172201745Y-128908499D01*
X172334899Y-128819529D01*
X172482858Y-128758242D01*
X172639925Y-128727000D01*
X172800075Y-128727000D01*
X172957142Y-128758242D01*
G37*
G36*
X199179000Y-129349000D02*
G01*
X198077000Y-129349000D01*
X198077000Y-128247000D01*
X199179000Y-128247000D01*
X199179000Y-129349000D01*
G37*
G36*
X195396425Y-126682760D02*
G01*
X195396428Y-126682761D01*
X195396429Y-126682761D01*
X195575693Y-126737140D01*
X195575696Y-126737142D01*
X195575697Y-126737142D01*
X195740903Y-126825446D01*
X195885712Y-126944288D01*
X196004554Y-127089097D01*
X196092858Y-127254303D01*
X196092860Y-127254307D01*
X196147239Y-127433571D01*
X196147240Y-127433575D01*
X196165601Y-127620000D01*
X196147240Y-127806425D01*
X196147239Y-127806428D01*
X196147239Y-127806429D01*
X196092860Y-127985693D01*
X196092858Y-127985696D01*
X196092858Y-127985697D01*
X196004554Y-128150903D01*
X195885712Y-128295712D01*
X195740903Y-128414554D01*
X195575697Y-128502858D01*
X195575693Y-128502860D01*
X195396429Y-128557239D01*
X195396428Y-128557239D01*
X195396425Y-128557240D01*
X195256718Y-128571000D01*
X193363282Y-128571000D01*
X193223575Y-128557240D01*
X193223572Y-128557239D01*
X193223571Y-128557239D01*
X193044307Y-128502860D01*
X193044303Y-128502858D01*
X192879097Y-128414554D01*
X192734288Y-128295712D01*
X192615446Y-128150903D01*
X192527142Y-127985697D01*
X192527142Y-127985696D01*
X192527140Y-127985693D01*
X192472761Y-127806429D01*
X192472761Y-127806428D01*
X192472760Y-127806425D01*
X192454399Y-127620000D01*
X192472760Y-127433575D01*
X192472761Y-127433571D01*
X192527140Y-127254307D01*
X192527142Y-127254303D01*
X192615446Y-127089097D01*
X192734288Y-126944288D01*
X192879097Y-126825446D01*
X193044303Y-126737142D01*
X193044304Y-126737142D01*
X193044307Y-126737140D01*
X193223571Y-126682761D01*
X193223572Y-126682761D01*
X193223575Y-126682760D01*
X193363282Y-126669000D01*
X195256718Y-126669000D01*
X195396425Y-126682760D01*
G37*
G36*
X199179000Y-127023000D02*
G01*
X198077000Y-127023000D01*
X198077000Y-125921000D01*
X199179000Y-125921000D01*
X199179000Y-127023000D01*
G37*
G36*
X99808512Y-124071927D02*
G01*
X99957812Y-124101624D01*
X100121784Y-124169544D01*
X100269354Y-124268147D01*
X100394853Y-124393646D01*
X100493456Y-124541216D01*
X100561376Y-124705188D01*
X100596000Y-124879259D01*
X100596000Y-125056741D01*
X100561376Y-125230812D01*
X100493456Y-125394784D01*
X100394853Y-125542354D01*
X100269354Y-125667853D01*
X100121784Y-125766456D01*
X99957812Y-125834376D01*
X99808512Y-125864073D01*
X99783742Y-125869000D01*
X99606258Y-125869000D01*
X99581488Y-125864073D01*
X99432188Y-125834376D01*
X99268216Y-125766456D01*
X99120646Y-125667853D01*
X98995147Y-125542354D01*
X98896544Y-125394784D01*
X98828624Y-125230812D01*
X98794000Y-125056741D01*
X98794000Y-124879259D01*
X98828624Y-124705188D01*
X98896544Y-124541216D01*
X98995147Y-124393646D01*
X99120646Y-124268147D01*
X99268216Y-124169544D01*
X99432188Y-124101624D01*
X99581488Y-124071927D01*
X99606258Y-124067000D01*
X99783742Y-124067000D01*
X99808512Y-124071927D01*
G37*
G36*
X189527000Y-125479000D02*
G01*
X188425000Y-125479000D01*
X188425000Y-124377000D01*
X189527000Y-124377000D01*
X189527000Y-125479000D01*
G37*
G36*
X172957142Y-123678242D02*
G01*
X173105101Y-123739529D01*
X173238255Y-123828499D01*
X173351501Y-123941745D01*
X173440471Y-124074899D01*
X173501758Y-124222858D01*
X173533000Y-124379925D01*
X173533000Y-124540075D01*
X173501758Y-124697142D01*
X173440471Y-124845101D01*
X173351501Y-124978255D01*
X173238255Y-125091501D01*
X173105101Y-125180471D01*
X172957142Y-125241758D01*
X172800075Y-125273000D01*
X172639925Y-125273000D01*
X172482858Y-125241758D01*
X172334899Y-125180471D01*
X172201745Y-125091501D01*
X172088499Y-124978255D01*
X171999529Y-124845101D01*
X171938242Y-124697142D01*
X171907000Y-124540075D01*
X171907000Y-124379925D01*
X171938242Y-124222858D01*
X171999529Y-124074899D01*
X172088499Y-123941745D01*
X172201745Y-123828499D01*
X172334899Y-123739529D01*
X172482858Y-123678242D01*
X172639925Y-123647000D01*
X172800075Y-123647000D01*
X172957142Y-123678242D01*
G37*
G36*
X183117142Y-123678242D02*
G01*
X183265101Y-123739529D01*
X183398255Y-123828499D01*
X183511501Y-123941745D01*
X183600471Y-124074899D01*
X183661758Y-124222858D01*
X183693000Y-124379925D01*
X183693000Y-124540075D01*
X183661758Y-124697142D01*
X183600471Y-124845101D01*
X183511501Y-124978255D01*
X183398255Y-125091501D01*
X183265101Y-125180471D01*
X183117142Y-125241758D01*
X182960075Y-125273000D01*
X182799925Y-125273000D01*
X182642858Y-125241758D01*
X182494899Y-125180471D01*
X182361745Y-125091501D01*
X182248499Y-124978255D01*
X182159529Y-124845101D01*
X182098242Y-124697142D01*
X182067000Y-124540075D01*
X182067000Y-124379925D01*
X182098242Y-124222858D01*
X182159529Y-124074899D01*
X182248499Y-123941745D01*
X182361745Y-123828499D01*
X182494899Y-123739529D01*
X182642858Y-123678242D01*
X182799925Y-123647000D01*
X182960075Y-123647000D01*
X183117142Y-123678242D01*
G37*
G36*
X195396425Y-123182760D02*
G01*
X195396428Y-123182761D01*
X195396429Y-123182761D01*
X195575693Y-123237140D01*
X195575696Y-123237142D01*
X195575697Y-123237142D01*
X195740903Y-123325446D01*
X195885712Y-123444288D01*
X196004554Y-123589097D01*
X196052203Y-123678243D01*
X196092860Y-123754307D01*
X196115366Y-123828501D01*
X196147240Y-123933575D01*
X196165601Y-124120000D01*
X196147240Y-124306425D01*
X196147239Y-124306428D01*
X196147239Y-124306429D01*
X196092860Y-124485693D01*
X196092858Y-124485696D01*
X196092858Y-124485697D01*
X196004554Y-124650903D01*
X195885712Y-124795712D01*
X195740903Y-124914554D01*
X195621726Y-124978255D01*
X195575693Y-125002860D01*
X195396429Y-125057239D01*
X195396428Y-125057239D01*
X195396425Y-125057240D01*
X195256718Y-125071000D01*
X193363282Y-125071000D01*
X193223575Y-125057240D01*
X193223572Y-125057239D01*
X193223571Y-125057239D01*
X193044307Y-125002860D01*
X192998274Y-124978255D01*
X192879097Y-124914554D01*
X192734288Y-124795712D01*
X192615446Y-124650903D01*
X192527142Y-124485697D01*
X192527142Y-124485696D01*
X192527140Y-124485693D01*
X192472761Y-124306429D01*
X192472761Y-124306428D01*
X192472760Y-124306425D01*
X192454399Y-124120000D01*
X192472760Y-123933575D01*
X192504634Y-123828501D01*
X192527140Y-123754307D01*
X192567797Y-123678243D01*
X192615446Y-123589097D01*
X192734288Y-123444288D01*
X192879097Y-123325446D01*
X193044303Y-123237142D01*
X193044304Y-123237142D01*
X193044307Y-123237140D01*
X193223571Y-123182761D01*
X193223572Y-123182761D01*
X193223575Y-123182760D01*
X193363282Y-123169000D01*
X195256718Y-123169000D01*
X195396425Y-123182760D01*
G37*
G36*
X199179000Y-124523000D02*
G01*
X198077000Y-124523000D01*
X198077000Y-123421000D01*
X199179000Y-123421000D01*
X199179000Y-124523000D01*
G37*
G36*
X100596000Y-123329000D02*
G01*
X98794000Y-123329000D01*
X98794000Y-121527000D01*
X100596000Y-121527000D01*
X100596000Y-123329000D01*
G37*
G36*
X189527000Y-122979000D02*
G01*
X188425000Y-122979000D01*
X188425000Y-121877000D01*
X189527000Y-121877000D01*
X189527000Y-122979000D01*
G37*
G36*
X195396425Y-119682760D02*
G01*
X195396428Y-119682761D01*
X195396429Y-119682761D01*
X195575693Y-119737140D01*
X195575696Y-119737142D01*
X195575697Y-119737142D01*
X195740903Y-119825446D01*
X195885712Y-119944288D01*
X196004554Y-120089097D01*
X196060091Y-120193000D01*
X196092860Y-120254307D01*
X196147239Y-120433571D01*
X196147240Y-120433575D01*
X196165601Y-120620000D01*
X196147240Y-120806425D01*
X196147239Y-120806428D01*
X196147239Y-120806429D01*
X196092860Y-120985693D01*
X196092858Y-120985696D01*
X196092858Y-120985697D01*
X196004554Y-121150903D01*
X195885712Y-121295712D01*
X195740903Y-121414554D01*
X195575697Y-121502858D01*
X195575693Y-121502860D01*
X195396429Y-121557239D01*
X195396428Y-121557239D01*
X195396425Y-121557240D01*
X195256718Y-121571000D01*
X193363282Y-121571000D01*
X193223575Y-121557240D01*
X193223572Y-121557239D01*
X193223571Y-121557239D01*
X193044307Y-121502860D01*
X193044303Y-121502858D01*
X192879097Y-121414554D01*
X192734288Y-121295712D01*
X192615446Y-121150903D01*
X192527142Y-120985697D01*
X192527142Y-120985696D01*
X192527140Y-120985693D01*
X192472761Y-120806429D01*
X192472761Y-120806428D01*
X192472760Y-120806425D01*
X192454399Y-120620000D01*
X192472760Y-120433575D01*
X192472761Y-120433571D01*
X192527140Y-120254307D01*
X192559909Y-120193000D01*
X192615446Y-120089097D01*
X192734288Y-119944288D01*
X192879097Y-119825446D01*
X193044303Y-119737142D01*
X193044304Y-119737142D01*
X193044307Y-119737140D01*
X193223571Y-119682761D01*
X193223572Y-119682761D01*
X193223575Y-119682760D01*
X193363282Y-119669000D01*
X195256718Y-119669000D01*
X195396425Y-119682760D01*
G37*
G36*
X84715331Y-117338211D02*
G01*
X85043092Y-117473974D01*
X85338070Y-117671072D01*
X85588928Y-117921930D01*
X85786026Y-118216908D01*
X85921789Y-118544669D01*
X85991000Y-118892616D01*
X85991000Y-119247384D01*
X85921789Y-119595331D01*
X85786026Y-119923092D01*
X85588928Y-120218070D01*
X85338070Y-120468928D01*
X85043092Y-120666026D01*
X84715331Y-120801789D01*
X84367384Y-120871000D01*
X84012616Y-120871000D01*
X83664669Y-120801789D01*
X83336908Y-120666026D01*
X83041930Y-120468928D01*
X82791072Y-120218070D01*
X82593974Y-119923092D01*
X82458211Y-119595331D01*
X82389000Y-119247384D01*
X82389000Y-118892616D01*
X82458211Y-118544669D01*
X82593974Y-118216908D01*
X82791072Y-117921930D01*
X83041930Y-117671072D01*
X83336908Y-117473974D01*
X83664669Y-117338211D01*
X84012616Y-117269000D01*
X84367384Y-117269000D01*
X84715331Y-117338211D01*
G37*
G36*
X183117142Y-118598242D02*
G01*
X183265101Y-118659529D01*
X183398255Y-118748499D01*
X183511501Y-118861745D01*
X183600471Y-118994899D01*
X183661758Y-119142858D01*
X183693000Y-119299925D01*
X183693000Y-119460075D01*
X183661758Y-119617142D01*
X183600471Y-119765101D01*
X183511501Y-119898255D01*
X183398255Y-120011501D01*
X183265101Y-120100471D01*
X183117142Y-120161758D01*
X182960075Y-120193000D01*
X182799925Y-120193000D01*
X182642858Y-120161758D01*
X182494899Y-120100471D01*
X182361745Y-120011501D01*
X182248499Y-119898255D01*
X182159529Y-119765101D01*
X182098242Y-119617142D01*
X182067000Y-119460075D01*
X182067000Y-119299925D01*
X182098242Y-119142858D01*
X182159529Y-118994899D01*
X182248499Y-118861745D01*
X182361745Y-118748499D01*
X182494899Y-118659529D01*
X182642858Y-118598242D01*
X182799925Y-118567000D01*
X182960075Y-118567000D01*
X183117142Y-118598242D01*
G37*
G36*
X172957142Y-118598242D02*
G01*
X173105101Y-118659529D01*
X173238255Y-118748499D01*
X173351501Y-118861745D01*
X173440471Y-118994899D01*
X173501758Y-119142858D01*
X173533000Y-119299925D01*
X173533000Y-119460075D01*
X173501758Y-119617142D01*
X173440471Y-119765101D01*
X173351501Y-119898255D01*
X173238255Y-120011501D01*
X173105101Y-120100471D01*
X172957142Y-120161758D01*
X172800075Y-120193000D01*
X172639925Y-120193000D01*
X172482858Y-120161758D01*
X172334899Y-120100471D01*
X172201745Y-120011501D01*
X172088499Y-119898255D01*
X171999529Y-119765101D01*
X171938242Y-119617142D01*
X171907000Y-119460075D01*
X171907000Y-119299925D01*
X171938242Y-119142858D01*
X171999529Y-118994899D01*
X172088499Y-118861745D01*
X172201745Y-118748499D01*
X172334899Y-118659529D01*
X172482858Y-118598242D01*
X172639925Y-118567000D01*
X172800075Y-118567000D01*
X172957142Y-118598242D01*
G37*
G36*
X87013512Y-113403927D02*
G01*
X87162812Y-113433624D01*
X87326784Y-113501544D01*
X87474354Y-113600147D01*
X87599853Y-113725646D01*
X87698456Y-113873216D01*
X87758523Y-114018229D01*
X87770068Y-114039829D01*
X87785613Y-114058771D01*
X87804555Y-114074316D01*
X87826166Y-114085867D01*
X87849615Y-114092980D01*
X87874001Y-114095382D01*
X87898387Y-114092980D01*
X87921836Y-114085867D01*
X87943447Y-114074316D01*
X87962389Y-114058771D01*
X87977934Y-114039829D01*
X87989485Y-114018218D01*
X87996598Y-113994769D01*
X87999000Y-113970383D01*
X87999000Y-113399000D01*
X89801000Y-113399000D01*
X89801000Y-115201000D01*
X87999000Y-115201000D01*
X87999000Y-114629617D01*
X87996598Y-114605231D01*
X87989485Y-114581782D01*
X87977934Y-114560171D01*
X87962389Y-114541229D01*
X87943447Y-114525684D01*
X87921836Y-114514133D01*
X87898387Y-114507020D01*
X87874001Y-114504618D01*
X87849615Y-114507020D01*
X87826166Y-114514133D01*
X87804555Y-114525684D01*
X87785613Y-114541229D01*
X87770068Y-114560171D01*
X87758523Y-114581771D01*
X87698456Y-114726784D01*
X87599853Y-114874354D01*
X87474354Y-114999853D01*
X87326784Y-115098456D01*
X87162812Y-115166376D01*
X87013512Y-115196073D01*
X86988742Y-115201000D01*
X86811258Y-115201000D01*
X86786488Y-115196073D01*
X86637188Y-115166376D01*
X86473216Y-115098456D01*
X86325646Y-114999853D01*
X86200147Y-114874354D01*
X86101544Y-114726784D01*
X86033624Y-114562812D01*
X85999000Y-114388741D01*
X85999000Y-114211259D01*
X86033624Y-114037188D01*
X86101544Y-113873216D01*
X86200147Y-113725646D01*
X86325646Y-113600147D01*
X86473216Y-113501544D01*
X86637188Y-113433624D01*
X86786488Y-113403927D01*
X86811258Y-113399000D01*
X86988742Y-113399000D01*
X87013512Y-113403927D01*
G37*
G36*
X84292674Y-112283465D02*
G01*
X84330367Y-112294899D01*
X84365103Y-112313466D01*
X84395548Y-112338452D01*
X84420534Y-112368897D01*
X84439101Y-112403633D01*
X84450535Y-112441326D01*
X84455000Y-112486661D01*
X84455000Y-113573339D01*
X84450535Y-113618674D01*
X84439101Y-113656367D01*
X84420534Y-113691103D01*
X84395548Y-113721548D01*
X84365103Y-113746534D01*
X84330367Y-113765101D01*
X84292674Y-113776535D01*
X84247339Y-113781000D01*
X83410661Y-113781000D01*
X83365326Y-113776535D01*
X83327633Y-113765101D01*
X83292897Y-113746534D01*
X83262452Y-113721548D01*
X83237466Y-113691103D01*
X83218899Y-113656367D01*
X83207465Y-113618674D01*
X83203000Y-113573339D01*
X83203000Y-112486661D01*
X83207465Y-112441326D01*
X83218899Y-112403633D01*
X83237466Y-112368897D01*
X83262452Y-112338452D01*
X83292897Y-112313466D01*
X83327633Y-112294899D01*
X83365326Y-112283465D01*
X83410661Y-112279000D01*
X84247339Y-112279000D01*
X84292674Y-112283465D01*
G37*
G36*
X82242674Y-112283465D02*
G01*
X82280367Y-112294899D01*
X82315103Y-112313466D01*
X82345548Y-112338452D01*
X82370534Y-112368897D01*
X82389101Y-112403633D01*
X82400535Y-112441326D01*
X82405000Y-112486661D01*
X82405000Y-113573339D01*
X82400535Y-113618674D01*
X82389101Y-113656367D01*
X82370534Y-113691103D01*
X82345548Y-113721548D01*
X82315103Y-113746534D01*
X82280367Y-113765101D01*
X82242674Y-113776535D01*
X82197339Y-113781000D01*
X81360661Y-113781000D01*
X81315326Y-113776535D01*
X81277633Y-113765101D01*
X81242897Y-113746534D01*
X81212452Y-113721548D01*
X81187466Y-113691103D01*
X81168899Y-113656367D01*
X81157465Y-113618674D01*
X81153000Y-113573339D01*
X81153000Y-112486661D01*
X81157465Y-112441326D01*
X81168899Y-112403633D01*
X81187466Y-112368897D01*
X81212452Y-112338452D01*
X81242897Y-112313466D01*
X81277633Y-112294899D01*
X81315326Y-112283465D01*
X81360661Y-112279000D01*
X82197339Y-112279000D01*
X82242674Y-112283465D01*
G37*
G36*
X87013512Y-110903927D02*
G01*
X87162812Y-110933624D01*
X87326784Y-111001544D01*
X87474354Y-111100147D01*
X87599853Y-111225646D01*
X87698456Y-111373216D01*
X87766376Y-111537188D01*
X87777405Y-111592638D01*
X87784516Y-111616078D01*
X87796067Y-111637689D01*
X87811613Y-111656631D01*
X87830555Y-111672176D01*
X87852165Y-111683727D01*
X87875614Y-111690840D01*
X87900000Y-111693242D01*
X87924387Y-111690840D01*
X87947835Y-111683727D01*
X87969446Y-111672176D01*
X87988388Y-111656630D01*
X88003933Y-111637688D01*
X88015484Y-111616078D01*
X88022595Y-111592638D01*
X88033624Y-111537188D01*
X88101544Y-111373216D01*
X88200147Y-111225646D01*
X88325646Y-111100147D01*
X88473216Y-111001544D01*
X88637188Y-110933624D01*
X88786488Y-110903927D01*
X88811258Y-110899000D01*
X88988742Y-110899000D01*
X89013512Y-110903927D01*
X89162812Y-110933624D01*
X89326784Y-111001544D01*
X89474354Y-111100147D01*
X89599853Y-111225646D01*
X89698456Y-111373216D01*
X89766376Y-111537188D01*
X89801000Y-111711259D01*
X89801000Y-111888741D01*
X89766376Y-112062812D01*
X89698456Y-112226784D01*
X89599853Y-112374354D01*
X89474354Y-112499853D01*
X89326784Y-112598456D01*
X89162812Y-112666376D01*
X89013512Y-112696073D01*
X88988742Y-112701000D01*
X88811258Y-112701000D01*
X88786488Y-112696073D01*
X88637188Y-112666376D01*
X88473216Y-112598456D01*
X88325646Y-112499853D01*
X88200147Y-112374354D01*
X88101544Y-112226784D01*
X88033624Y-112062812D01*
X88022595Y-112007362D01*
X88015484Y-111983922D01*
X88003933Y-111962311D01*
X87988387Y-111943369D01*
X87969445Y-111927824D01*
X87947835Y-111916273D01*
X87924386Y-111909160D01*
X87900000Y-111906758D01*
X87875613Y-111909160D01*
X87852165Y-111916273D01*
X87830554Y-111927824D01*
X87811612Y-111943370D01*
X87796067Y-111962312D01*
X87784516Y-111983922D01*
X87777405Y-112007362D01*
X87766376Y-112062812D01*
X87698456Y-112226784D01*
X87599853Y-112374354D01*
X87474354Y-112499853D01*
X87326784Y-112598456D01*
X87162812Y-112666376D01*
X87013512Y-112696073D01*
X86988742Y-112701000D01*
X86811258Y-112701000D01*
X86786488Y-112696073D01*
X86637188Y-112666376D01*
X86473216Y-112598456D01*
X86325646Y-112499853D01*
X86200147Y-112374354D01*
X86101544Y-112226784D01*
X86033624Y-112062812D01*
X85999000Y-111888741D01*
X85999000Y-111711259D01*
X86033624Y-111537188D01*
X86101544Y-111373216D01*
X86200147Y-111225646D01*
X86325646Y-111100147D01*
X86473216Y-111001544D01*
X86637188Y-110933624D01*
X86786488Y-110903927D01*
X86811258Y-110899000D01*
X86988742Y-110899000D01*
X87013512Y-110903927D01*
G37*
G36*
X196020915Y-108272934D02*
G01*
X196053424Y-108282795D01*
X196083382Y-108298809D01*
X196109641Y-108320359D01*
X196131191Y-108346618D01*
X196147205Y-108376576D01*
X196157066Y-108409085D01*
X196161000Y-108449029D01*
X196161000Y-109990971D01*
X196157066Y-110030915D01*
X196147205Y-110063424D01*
X196131191Y-110093382D01*
X196109641Y-110119641D01*
X196083382Y-110141191D01*
X196053424Y-110157205D01*
X196020915Y-110167066D01*
X195980971Y-110171000D01*
X192639029Y-110171000D01*
X192599085Y-110167066D01*
X192566576Y-110157205D01*
X192536618Y-110141191D01*
X192510359Y-110119641D01*
X192488809Y-110093382D01*
X192472795Y-110063424D01*
X192462934Y-110030915D01*
X192459000Y-109990971D01*
X192459000Y-108449029D01*
X192462934Y-108409085D01*
X192472795Y-108376576D01*
X192488809Y-108346618D01*
X192510359Y-108320359D01*
X192536618Y-108298809D01*
X192566576Y-108282795D01*
X192599085Y-108272934D01*
X192639029Y-108269000D01*
X195980971Y-108269000D01*
X196020915Y-108272934D01*
G37*
G36*
X84715331Y-105298211D02*
G01*
X85043092Y-105433974D01*
X85338070Y-105631072D01*
X85588928Y-105881930D01*
X85786026Y-106176908D01*
X85921789Y-106504669D01*
X85991000Y-106852616D01*
X85991000Y-107207384D01*
X85921789Y-107555331D01*
X85786026Y-107883092D01*
X85588928Y-108178070D01*
X85338070Y-108428928D01*
X85043092Y-108626026D01*
X84715331Y-108761789D01*
X84367384Y-108831000D01*
X84012616Y-108831000D01*
X83664669Y-108761789D01*
X83336908Y-108626026D01*
X83041930Y-108428928D01*
X82791072Y-108178070D01*
X82593974Y-107883092D01*
X82458211Y-107555331D01*
X82389000Y-107207384D01*
X82389000Y-106852616D01*
X82458211Y-106504669D01*
X82593974Y-106176908D01*
X82791072Y-105881930D01*
X83041930Y-105631072D01*
X83336908Y-105433974D01*
X83664669Y-105298211D01*
X84012616Y-105229000D01*
X84367384Y-105229000D01*
X84715331Y-105298211D01*
G37*
G36*
X195396425Y-104782760D02*
G01*
X195396428Y-104782761D01*
X195396429Y-104782761D01*
X195575693Y-104837140D01*
X195575696Y-104837142D01*
X195575697Y-104837142D01*
X195740903Y-104925446D01*
X195885712Y-105044288D01*
X196004554Y-105189097D01*
X196092858Y-105354303D01*
X196092860Y-105354307D01*
X196147239Y-105533571D01*
X196147240Y-105533575D01*
X196165601Y-105720000D01*
X196147240Y-105906425D01*
X196147239Y-105906428D01*
X196147239Y-105906429D01*
X196092860Y-106085693D01*
X196092858Y-106085696D01*
X196092858Y-106085697D01*
X196004554Y-106250903D01*
X195885712Y-106395712D01*
X195740903Y-106514554D01*
X195575697Y-106602858D01*
X195575693Y-106602860D01*
X195396429Y-106657239D01*
X195396428Y-106657239D01*
X195396425Y-106657240D01*
X195256718Y-106671000D01*
X193363282Y-106671000D01*
X193223575Y-106657240D01*
X193223572Y-106657239D01*
X193223571Y-106657239D01*
X193044307Y-106602860D01*
X193044303Y-106602858D01*
X192879097Y-106514554D01*
X192734288Y-106395712D01*
X192615446Y-106250903D01*
X192527142Y-106085697D01*
X192527142Y-106085696D01*
X192527140Y-106085693D01*
X192472761Y-105906429D01*
X192472761Y-105906428D01*
X192472760Y-105906425D01*
X192454399Y-105720000D01*
X192472760Y-105533575D01*
X192472761Y-105533571D01*
X192527140Y-105354307D01*
X192527142Y-105354303D01*
X192615446Y-105189097D01*
X192734288Y-105044288D01*
X192879097Y-104925446D01*
X193044303Y-104837142D01*
X193044304Y-104837142D01*
X193044307Y-104837140D01*
X193223571Y-104782761D01*
X193223572Y-104782761D01*
X193223575Y-104782760D01*
X193363282Y-104769000D01*
X195256718Y-104769000D01*
X195396425Y-104782760D01*
G37*
G36*
X195396425Y-101282760D02*
G01*
X195396428Y-101282761D01*
X195396429Y-101282761D01*
X195575693Y-101337140D01*
X195575696Y-101337142D01*
X195575697Y-101337142D01*
X195740903Y-101425446D01*
X195885712Y-101544288D01*
X196004554Y-101689097D01*
X196092858Y-101854303D01*
X196092860Y-101854307D01*
X196147239Y-102033571D01*
X196147240Y-102033575D01*
X196165601Y-102220000D01*
X196147240Y-102406425D01*
X196147239Y-102406428D01*
X196147239Y-102406429D01*
X196092860Y-102585693D01*
X196092858Y-102585696D01*
X196092858Y-102585697D01*
X196004554Y-102750903D01*
X195885712Y-102895712D01*
X195740903Y-103014554D01*
X195575697Y-103102858D01*
X195575693Y-103102860D01*
X195396429Y-103157239D01*
X195396428Y-103157239D01*
X195396425Y-103157240D01*
X195256718Y-103171000D01*
X193363282Y-103171000D01*
X193223575Y-103157240D01*
X193223572Y-103157239D01*
X193223571Y-103157239D01*
X193044307Y-103102860D01*
X193044303Y-103102858D01*
X192879097Y-103014554D01*
X192734288Y-102895712D01*
X192615446Y-102750903D01*
X192527142Y-102585697D01*
X192527142Y-102585696D01*
X192527140Y-102585693D01*
X192472761Y-102406429D01*
X192472761Y-102406428D01*
X192472760Y-102406425D01*
X192454399Y-102220000D01*
X192472760Y-102033575D01*
X192472761Y-102033571D01*
X192527140Y-101854307D01*
X192527142Y-101854303D01*
X192615446Y-101689097D01*
X192734288Y-101544288D01*
X192879097Y-101425446D01*
X193044303Y-101337142D01*
X193044304Y-101337142D01*
X193044307Y-101337140D01*
X193223571Y-101282761D01*
X193223572Y-101282761D01*
X193223575Y-101282760D01*
X193363282Y-101269000D01*
X195256718Y-101269000D01*
X195396425Y-101282760D01*
G37*
G36*
X133997000Y-100977000D02*
G01*
X132195000Y-100977000D01*
X132195000Y-99175000D01*
X133997000Y-99175000D01*
X133997000Y-100977000D01*
G37*
G36*
X195396425Y-97782760D02*
G01*
X195396428Y-97782761D01*
X195396429Y-97782761D01*
X195575693Y-97837140D01*
X195575696Y-97837142D01*
X195575697Y-97837142D01*
X195740903Y-97925446D01*
X195885712Y-98044288D01*
X196004554Y-98189097D01*
X196092858Y-98354303D01*
X196092860Y-98354307D01*
X196147239Y-98533571D01*
X196147240Y-98533575D01*
X196165601Y-98720000D01*
X196147240Y-98906425D01*
X196147239Y-98906428D01*
X196147239Y-98906429D01*
X196092860Y-99085693D01*
X196092858Y-99085696D01*
X196092858Y-99085697D01*
X196004554Y-99250903D01*
X195885712Y-99395712D01*
X195740903Y-99514554D01*
X195575697Y-99602858D01*
X195575693Y-99602860D01*
X195396429Y-99657239D01*
X195396428Y-99657239D01*
X195396425Y-99657240D01*
X195256718Y-99671000D01*
X193363282Y-99671000D01*
X193223575Y-99657240D01*
X193223572Y-99657239D01*
X193223571Y-99657239D01*
X193044307Y-99602860D01*
X193044303Y-99602858D01*
X192879097Y-99514554D01*
X192734288Y-99395712D01*
X192615446Y-99250903D01*
X192527142Y-99085697D01*
X192527142Y-99085696D01*
X192527140Y-99085693D01*
X192472761Y-98906429D01*
X192472761Y-98906428D01*
X192472760Y-98906425D01*
X192454399Y-98720000D01*
X192472760Y-98533575D01*
X192472761Y-98533571D01*
X192527140Y-98354307D01*
X192527142Y-98354303D01*
X192615446Y-98189097D01*
X192734288Y-98044288D01*
X192879097Y-97925446D01*
X193044303Y-97837142D01*
X193044304Y-97837142D01*
X193044307Y-97837140D01*
X193223571Y-97782761D01*
X193223572Y-97782761D01*
X193223575Y-97782760D01*
X193363282Y-97769000D01*
X195256718Y-97769000D01*
X195396425Y-97782760D01*
G37*
G36*
X133209512Y-96639927D02*
G01*
X133358812Y-96669624D01*
X133522784Y-96737544D01*
X133670354Y-96836147D01*
X133795853Y-96961646D01*
X133894456Y-97109216D01*
X133962376Y-97273188D01*
X133997000Y-97447259D01*
X133997000Y-97624741D01*
X133962376Y-97798812D01*
X133894456Y-97962784D01*
X133795853Y-98110354D01*
X133670354Y-98235853D01*
X133522784Y-98334456D01*
X133358812Y-98402376D01*
X133209512Y-98432073D01*
X133184742Y-98437000D01*
X133007258Y-98437000D01*
X132982488Y-98432073D01*
X132833188Y-98402376D01*
X132669216Y-98334456D01*
X132521646Y-98235853D01*
X132396147Y-98110354D01*
X132297544Y-97962784D01*
X132229624Y-97798812D01*
X132195000Y-97624741D01*
X132195000Y-97447259D01*
X132229624Y-97273188D01*
X132297544Y-97109216D01*
X132396147Y-96961646D01*
X132521646Y-96836147D01*
X132669216Y-96737544D01*
X132833188Y-96669624D01*
X132982488Y-96639927D01*
X133007258Y-96635000D01*
X133184742Y-96635000D01*
X133209512Y-96639927D01*
G37*
G36*
X86484823Y-94907258D02*
G01*
X86642410Y-94938604D01*
X86924674Y-95055521D01*
X87178705Y-95225259D01*
X87394741Y-95441295D01*
X87564479Y-95695326D01*
X87681396Y-95977590D01*
X87741000Y-96277240D01*
X87741000Y-96582760D01*
X87681396Y-96882410D01*
X87564479Y-97164674D01*
X87394741Y-97418705D01*
X87178705Y-97634741D01*
X86924674Y-97804479D01*
X86642410Y-97921396D01*
X86492585Y-97951198D01*
X86342761Y-97981000D01*
X86037239Y-97981000D01*
X85887415Y-97951198D01*
X85737590Y-97921396D01*
X85455326Y-97804479D01*
X85201295Y-97634741D01*
X84985259Y-97418705D01*
X84815521Y-97164674D01*
X84698604Y-96882410D01*
X84639000Y-96582760D01*
X84639000Y-96277240D01*
X84698604Y-95977590D01*
X84815521Y-95695326D01*
X84985259Y-95441295D01*
X85201295Y-95225259D01*
X85455326Y-95055521D01*
X85737590Y-94938604D01*
X85895177Y-94907258D01*
X86037239Y-94879000D01*
X86342761Y-94879000D01*
X86484823Y-94907258D01*
G37*
G36*
X195396425Y-94282760D02*
G01*
X195396428Y-94282761D01*
X195396429Y-94282761D01*
X195575693Y-94337140D01*
X195575696Y-94337142D01*
X195575697Y-94337142D01*
X195740903Y-94425446D01*
X195885712Y-94544288D01*
X196004554Y-94689097D01*
X196092858Y-94854303D01*
X196092860Y-94854307D01*
X196118431Y-94938604D01*
X196147240Y-95033575D01*
X196165601Y-95220000D01*
X196147240Y-95406425D01*
X196147239Y-95406428D01*
X196147239Y-95406429D01*
X196092860Y-95585693D01*
X196092858Y-95585696D01*
X196092858Y-95585697D01*
X196004554Y-95750903D01*
X195885712Y-95895712D01*
X195740903Y-96014554D01*
X195575697Y-96102858D01*
X195575693Y-96102860D01*
X195396429Y-96157239D01*
X195396428Y-96157239D01*
X195396425Y-96157240D01*
X195256718Y-96171000D01*
X193363282Y-96171000D01*
X193223575Y-96157240D01*
X193223572Y-96157239D01*
X193223571Y-96157239D01*
X193044307Y-96102860D01*
X193044303Y-96102858D01*
X192879097Y-96014554D01*
X192734288Y-95895712D01*
X192615446Y-95750903D01*
X192527142Y-95585697D01*
X192527142Y-95585696D01*
X192527140Y-95585693D01*
X192472761Y-95406429D01*
X192472761Y-95406428D01*
X192472760Y-95406425D01*
X192454399Y-95220000D01*
X192472760Y-95033575D01*
X192501569Y-94938604D01*
X192527140Y-94854307D01*
X192527142Y-94854303D01*
X192615446Y-94689097D01*
X192734288Y-94544288D01*
X192879097Y-94425446D01*
X193044303Y-94337142D01*
X193044304Y-94337142D01*
X193044307Y-94337140D01*
X193223571Y-94282761D01*
X193223572Y-94282761D01*
X193223575Y-94282760D01*
X193363282Y-94269000D01*
X195256718Y-94269000D01*
X195396425Y-94282760D01*
G37*
G36*
X133209512Y-94099927D02*
G01*
X133358812Y-94129624D01*
X133522784Y-94197544D01*
X133670354Y-94296147D01*
X133795853Y-94421646D01*
X133894456Y-94569216D01*
X133962376Y-94733188D01*
X133997000Y-94907259D01*
X133997000Y-95084741D01*
X133962376Y-95258812D01*
X133894456Y-95422784D01*
X133795853Y-95570354D01*
X133670354Y-95695853D01*
X133522784Y-95794456D01*
X133358812Y-95862376D01*
X133209512Y-95892073D01*
X133184742Y-95897000D01*
X133007258Y-95897000D01*
X132982488Y-95892073D01*
X132833188Y-95862376D01*
X132669216Y-95794456D01*
X132521646Y-95695853D01*
X132396147Y-95570354D01*
X132297544Y-95422784D01*
X132229624Y-95258812D01*
X132195000Y-95084741D01*
X132195000Y-94907259D01*
X132229624Y-94733188D01*
X132297544Y-94569216D01*
X132396147Y-94421646D01*
X132521646Y-94296147D01*
X132669216Y-94197544D01*
X132833188Y-94129624D01*
X132982488Y-94099927D01*
X133007258Y-94095000D01*
X133184742Y-94095000D01*
X133209512Y-94099927D01*
G37*
G36*
X89148228Y-92541703D02*
G01*
X89303100Y-92605853D01*
X89442481Y-92698985D01*
X89561015Y-92817519D01*
X89654147Y-92956900D01*
X89718297Y-93111772D01*
X89751000Y-93276184D01*
X89751000Y-93443816D01*
X89718297Y-93608228D01*
X89654147Y-93763100D01*
X89561015Y-93902481D01*
X89442481Y-94021015D01*
X89303100Y-94114147D01*
X89148228Y-94178297D01*
X88983816Y-94211000D01*
X88816184Y-94211000D01*
X88651772Y-94178297D01*
X88496900Y-94114147D01*
X88357519Y-94021015D01*
X88238985Y-93902481D01*
X88145853Y-93763100D01*
X88081703Y-93608228D01*
X88049000Y-93443816D01*
X88049000Y-93276184D01*
X88081703Y-93111772D01*
X88145853Y-92956900D01*
X88238985Y-92817519D01*
X88357519Y-92698985D01*
X88496900Y-92605853D01*
X88651772Y-92541703D01*
X88816184Y-92509000D01*
X88983816Y-92509000D01*
X89148228Y-92541703D01*
G37*
G36*
X195396425Y-90782760D02*
G01*
X195396428Y-90782761D01*
X195396429Y-90782761D01*
X195575693Y-90837140D01*
X195575696Y-90837142D01*
X195575697Y-90837142D01*
X195740903Y-90925446D01*
X195885712Y-91044288D01*
X196004554Y-91189097D01*
X196044109Y-91263100D01*
X196092860Y-91354307D01*
X196107473Y-91402481D01*
X196147240Y-91533575D01*
X196165601Y-91720000D01*
X196147240Y-91906425D01*
X196147239Y-91906428D01*
X196147239Y-91906429D01*
X196092860Y-92085693D01*
X196092858Y-92085696D01*
X196092858Y-92085697D01*
X196004554Y-92250903D01*
X195885712Y-92395712D01*
X195740903Y-92514554D01*
X195575697Y-92602858D01*
X195575693Y-92602860D01*
X195396429Y-92657239D01*
X195396428Y-92657239D01*
X195396425Y-92657240D01*
X195256718Y-92671000D01*
X193363282Y-92671000D01*
X193223575Y-92657240D01*
X193223572Y-92657239D01*
X193223571Y-92657239D01*
X193044307Y-92602860D01*
X193044303Y-92602858D01*
X192879097Y-92514554D01*
X192734288Y-92395712D01*
X192615446Y-92250903D01*
X192527142Y-92085697D01*
X192527142Y-92085696D01*
X192527140Y-92085693D01*
X192472761Y-91906429D01*
X192472761Y-91906428D01*
X192472760Y-91906425D01*
X192454399Y-91720000D01*
X192472760Y-91533575D01*
X192512527Y-91402481D01*
X192527140Y-91354307D01*
X192575891Y-91263100D01*
X192615446Y-91189097D01*
X192734288Y-91044288D01*
X192879097Y-90925446D01*
X193044303Y-90837142D01*
X193044304Y-90837142D01*
X193044307Y-90837140D01*
X193223571Y-90782761D01*
X193223572Y-90782761D01*
X193223575Y-90782760D01*
X193363282Y-90769000D01*
X195256718Y-90769000D01*
X195396425Y-90782760D01*
G37*
G36*
X89148228Y-90041703D02*
G01*
X89303100Y-90105853D01*
X89442481Y-90198985D01*
X89561015Y-90317519D01*
X89654147Y-90456900D01*
X89718297Y-90611772D01*
X89751000Y-90776184D01*
X89751000Y-90943816D01*
X89718297Y-91108228D01*
X89654147Y-91263100D01*
X89561015Y-91402481D01*
X89442481Y-91521015D01*
X89303100Y-91614147D01*
X89148228Y-91678297D01*
X88983816Y-91711000D01*
X88816184Y-91711000D01*
X88651772Y-91678297D01*
X88496900Y-91614147D01*
X88357519Y-91521015D01*
X88238985Y-91402481D01*
X88145853Y-91263100D01*
X88081703Y-91108228D01*
X88049000Y-90943816D01*
X88049000Y-90776184D01*
X88081703Y-90611772D01*
X88145853Y-90456900D01*
X88238985Y-90317519D01*
X88357519Y-90198985D01*
X88496900Y-90105853D01*
X88651772Y-90041703D01*
X88816184Y-90009000D01*
X88983816Y-90009000D01*
X89148228Y-90041703D01*
G37*
G36*
X83766674Y-88915465D02*
G01*
X83804367Y-88926899D01*
X83839103Y-88945466D01*
X83869548Y-88970452D01*
X83894534Y-89000897D01*
X83913101Y-89035633D01*
X83924535Y-89073326D01*
X83929000Y-89118661D01*
X83929000Y-90205339D01*
X83924535Y-90250674D01*
X83913101Y-90288367D01*
X83894534Y-90323103D01*
X83869548Y-90353548D01*
X83839103Y-90378534D01*
X83804367Y-90397101D01*
X83766674Y-90408535D01*
X83721339Y-90413000D01*
X82884661Y-90413000D01*
X82839326Y-90408535D01*
X82801633Y-90397101D01*
X82766897Y-90378534D01*
X82736452Y-90353548D01*
X82711466Y-90323103D01*
X82692899Y-90288367D01*
X82681465Y-90250674D01*
X82677000Y-90205339D01*
X82677000Y-89118661D01*
X82681465Y-89073326D01*
X82692899Y-89035633D01*
X82711466Y-89000897D01*
X82736452Y-88970452D01*
X82766897Y-88945466D01*
X82801633Y-88926899D01*
X82839326Y-88915465D01*
X82884661Y-88911000D01*
X83721339Y-88911000D01*
X83766674Y-88915465D01*
G37*
G36*
X85816674Y-88915465D02*
G01*
X85854367Y-88926899D01*
X85889103Y-88945466D01*
X85919548Y-88970452D01*
X85944534Y-89000897D01*
X85963101Y-89035633D01*
X85974535Y-89073326D01*
X85979000Y-89118661D01*
X85979000Y-90205339D01*
X85974535Y-90250674D01*
X85963101Y-90288367D01*
X85944534Y-90323103D01*
X85919548Y-90353548D01*
X85889103Y-90378534D01*
X85854367Y-90397101D01*
X85816674Y-90408535D01*
X85771339Y-90413000D01*
X84934661Y-90413000D01*
X84889326Y-90408535D01*
X84851633Y-90397101D01*
X84816897Y-90378534D01*
X84786452Y-90353548D01*
X84761466Y-90323103D01*
X84742899Y-90288367D01*
X84731465Y-90250674D01*
X84727000Y-90205339D01*
X84727000Y-89118661D01*
X84731465Y-89073326D01*
X84742899Y-89035633D01*
X84761466Y-89000897D01*
X84786452Y-88970452D01*
X84816897Y-88945466D01*
X84851633Y-88926899D01*
X84889326Y-88915465D01*
X84934661Y-88911000D01*
X85771339Y-88911000D01*
X85816674Y-88915465D01*
G37*
G36*
X145319000Y-87669000D02*
G01*
X145178445Y-87669000D01*
X145154059Y-87671402D01*
X145130610Y-87678515D01*
X145108999Y-87690066D01*
X145090057Y-87705611D01*
X145074512Y-87724553D01*
X145062961Y-87746164D01*
X145055848Y-87769613D01*
X145053446Y-87793999D01*
X145055848Y-87818385D01*
X145062961Y-87841834D01*
X145074512Y-87863445D01*
X145090057Y-87882387D01*
X145108999Y-87897932D01*
X145119521Y-87904238D01*
X145310555Y-88006347D01*
X145485818Y-88150182D01*
X145629653Y-88325445D01*
X145672937Y-88406425D01*
X145736530Y-88525400D01*
X145802346Y-88742365D01*
X145824569Y-88968000D01*
X145802346Y-89193635D01*
X145738993Y-89402481D01*
X145736529Y-89410602D01*
X145629653Y-89610555D01*
X145485818Y-89785818D01*
X145310555Y-89929653D01*
X145110602Y-90036529D01*
X145110600Y-90036530D01*
X144893635Y-90102346D01*
X144837271Y-90107897D01*
X144724545Y-90119000D01*
X143311455Y-90119000D01*
X143198729Y-90107897D01*
X143142365Y-90102346D01*
X142925400Y-90036530D01*
X142925398Y-90036529D01*
X142725445Y-89929653D01*
X142550182Y-89785818D01*
X142406347Y-89610555D01*
X142299471Y-89410602D01*
X142297008Y-89402481D01*
X142233654Y-89193635D01*
X142211431Y-88968000D01*
X142233654Y-88742365D01*
X142299470Y-88525400D01*
X142363063Y-88406425D01*
X142406347Y-88325445D01*
X142550182Y-88150182D01*
X142725445Y-88006347D01*
X142916479Y-87904238D01*
X142936853Y-87890625D01*
X142954180Y-87873298D01*
X142967794Y-87852923D01*
X142977172Y-87830285D01*
X142981952Y-87806251D01*
X142981952Y-87781747D01*
X142977172Y-87757714D01*
X142967794Y-87735075D01*
X142954181Y-87714701D01*
X142936854Y-87697374D01*
X142916479Y-87683760D01*
X142893841Y-87674382D01*
X142869807Y-87669602D01*
X142857555Y-87669000D01*
X142717000Y-87669000D01*
X142717000Y-86067000D01*
X145319000Y-86067000D01*
X145319000Y-87669000D01*
G37*
G36*
X160813000Y-87669000D02*
G01*
X160672445Y-87669000D01*
X160648059Y-87671402D01*
X160624610Y-87678515D01*
X160602999Y-87690066D01*
X160584057Y-87705611D01*
X160568512Y-87724553D01*
X160556961Y-87746164D01*
X160549848Y-87769613D01*
X160547446Y-87793999D01*
X160549848Y-87818385D01*
X160556961Y-87841834D01*
X160568512Y-87863445D01*
X160584057Y-87882387D01*
X160602999Y-87897932D01*
X160613521Y-87904238D01*
X160804555Y-88006347D01*
X160979818Y-88150182D01*
X161123653Y-88325445D01*
X161166937Y-88406425D01*
X161230530Y-88525400D01*
X161296346Y-88742365D01*
X161318569Y-88968000D01*
X161296346Y-89193635D01*
X161232993Y-89402481D01*
X161230529Y-89410602D01*
X161123653Y-89610555D01*
X160979818Y-89785818D01*
X160804555Y-89929653D01*
X160604602Y-90036529D01*
X160604600Y-90036530D01*
X160387635Y-90102346D01*
X160331271Y-90107897D01*
X160218545Y-90119000D01*
X158805455Y-90119000D01*
X158692729Y-90107897D01*
X158636365Y-90102346D01*
X158419400Y-90036530D01*
X158419398Y-90036529D01*
X158219445Y-89929653D01*
X158044182Y-89785818D01*
X157900347Y-89610555D01*
X157793471Y-89410602D01*
X157791008Y-89402481D01*
X157727654Y-89193635D01*
X157705431Y-88968000D01*
X157727654Y-88742365D01*
X157793470Y-88525400D01*
X157857063Y-88406425D01*
X157900347Y-88325445D01*
X158044182Y-88150182D01*
X158219445Y-88006347D01*
X158410479Y-87904238D01*
X158430853Y-87890625D01*
X158448180Y-87873298D01*
X158461794Y-87852923D01*
X158471172Y-87830285D01*
X158475952Y-87806251D01*
X158475952Y-87781747D01*
X158471172Y-87757714D01*
X158461794Y-87735075D01*
X158448181Y-87714701D01*
X158430854Y-87697374D01*
X158410479Y-87683760D01*
X158387841Y-87674382D01*
X158363807Y-87669602D01*
X158351555Y-87669000D01*
X158211000Y-87669000D01*
X158211000Y-86067000D01*
X160813000Y-86067000D01*
X160813000Y-87669000D01*
G37*
G36*
X89148228Y-88041703D02*
G01*
X89303100Y-88105853D01*
X89442481Y-88198985D01*
X89561015Y-88317519D01*
X89654147Y-88456900D01*
X89718297Y-88611772D01*
X89751000Y-88776184D01*
X89751000Y-88943816D01*
X89718297Y-89108228D01*
X89654147Y-89263100D01*
X89561015Y-89402481D01*
X89442481Y-89521015D01*
X89303100Y-89614147D01*
X89148228Y-89678297D01*
X88983816Y-89711000D01*
X88816184Y-89711000D01*
X88651772Y-89678297D01*
X88496900Y-89614147D01*
X88357519Y-89521015D01*
X88238985Y-89402481D01*
X88145853Y-89263100D01*
X88081703Y-89108228D01*
X88049000Y-88943816D01*
X88049000Y-88776184D01*
X88081703Y-88611772D01*
X88145853Y-88456900D01*
X88238985Y-88317519D01*
X88357519Y-88198985D01*
X88496900Y-88105853D01*
X88651772Y-88041703D01*
X88816184Y-88009000D01*
X88983816Y-88009000D01*
X89148228Y-88041703D01*
G37*
G36*
X195396425Y-87282760D02*
G01*
X195396428Y-87282761D01*
X195396429Y-87282761D01*
X195575693Y-87337140D01*
X195575696Y-87337142D01*
X195575697Y-87337142D01*
X195740903Y-87425446D01*
X195885712Y-87544288D01*
X196004554Y-87689097D01*
X196080020Y-87830285D01*
X196092860Y-87854307D01*
X196138981Y-88006348D01*
X196147240Y-88033575D01*
X196165601Y-88220000D01*
X196147240Y-88406425D01*
X196147239Y-88406428D01*
X196147239Y-88406429D01*
X196092860Y-88585693D01*
X196092858Y-88585696D01*
X196092858Y-88585697D01*
X196004554Y-88750903D01*
X195885712Y-88895712D01*
X195740903Y-89014554D01*
X195575697Y-89102858D01*
X195575693Y-89102860D01*
X195396429Y-89157239D01*
X195396428Y-89157239D01*
X195396425Y-89157240D01*
X195256718Y-89171000D01*
X193363282Y-89171000D01*
X193223575Y-89157240D01*
X193223572Y-89157239D01*
X193223571Y-89157239D01*
X193044307Y-89102860D01*
X193044303Y-89102858D01*
X192879097Y-89014554D01*
X192734288Y-88895712D01*
X192615446Y-88750903D01*
X192527142Y-88585697D01*
X192527142Y-88585696D01*
X192527140Y-88585693D01*
X192472761Y-88406429D01*
X192472761Y-88406428D01*
X192472760Y-88406425D01*
X192454399Y-88220000D01*
X192472760Y-88033575D01*
X192481019Y-88006348D01*
X192527140Y-87854307D01*
X192539980Y-87830285D01*
X192615446Y-87689097D01*
X192734288Y-87544288D01*
X192879097Y-87425446D01*
X193044303Y-87337142D01*
X193044304Y-87337142D01*
X193044307Y-87337140D01*
X193223571Y-87282761D01*
X193223572Y-87282761D01*
X193223575Y-87282760D01*
X193363282Y-87269000D01*
X195256718Y-87269000D01*
X195396425Y-87282760D01*
G37*
G36*
X89751000Y-87211000D02*
G01*
X88049000Y-87211000D01*
X88049000Y-85509000D01*
X89751000Y-85509000D01*
X89751000Y-87211000D01*
G37*
G36*
X195396425Y-83782760D02*
G01*
X195396428Y-83782761D01*
X195396429Y-83782761D01*
X195575693Y-83837140D01*
X195575696Y-83837142D01*
X195575697Y-83837142D01*
X195740903Y-83925446D01*
X195885712Y-84044288D01*
X196004554Y-84189097D01*
X196052450Y-84278705D01*
X196092860Y-84354307D01*
X196135460Y-84494741D01*
X196147240Y-84533575D01*
X196165601Y-84720000D01*
X196147240Y-84906425D01*
X196147239Y-84906428D01*
X196147239Y-84906429D01*
X196092860Y-85085693D01*
X196092858Y-85085696D01*
X196092858Y-85085697D01*
X196004554Y-85250903D01*
X195885712Y-85395712D01*
X195740903Y-85514554D01*
X195575697Y-85602858D01*
X195575693Y-85602860D01*
X195396429Y-85657239D01*
X195396428Y-85657239D01*
X195396425Y-85657240D01*
X195256718Y-85671000D01*
X193363282Y-85671000D01*
X193223575Y-85657240D01*
X193223572Y-85657239D01*
X193223571Y-85657239D01*
X193044307Y-85602860D01*
X193044303Y-85602858D01*
X192879097Y-85514554D01*
X192734288Y-85395712D01*
X192615446Y-85250903D01*
X192527142Y-85085697D01*
X192527142Y-85085696D01*
X192527140Y-85085693D01*
X192472761Y-84906429D01*
X192472761Y-84906428D01*
X192472760Y-84906425D01*
X192454399Y-84720000D01*
X192472760Y-84533575D01*
X192484540Y-84494741D01*
X192527140Y-84354307D01*
X192567550Y-84278705D01*
X192615446Y-84189097D01*
X192734288Y-84044288D01*
X192879097Y-83925446D01*
X193044303Y-83837142D01*
X193044304Y-83837142D01*
X193044307Y-83837140D01*
X193223571Y-83782761D01*
X193223572Y-83782761D01*
X193223575Y-83782760D01*
X193363282Y-83769000D01*
X195256718Y-83769000D01*
X195396425Y-83782760D01*
G37*
G36*
X160090571Y-84070863D02*
G01*
X160169023Y-84078590D01*
X160269682Y-84109125D01*
X160320013Y-84124392D01*
X160459165Y-84198771D01*
X160581133Y-84298867D01*
X160681229Y-84420835D01*
X160755608Y-84559987D01*
X160755608Y-84559988D01*
X160801410Y-84710977D01*
X160816875Y-84868000D01*
X160801410Y-85025023D01*
X160783006Y-85085693D01*
X160755608Y-85176013D01*
X160681229Y-85315165D01*
X160581133Y-85437133D01*
X160459165Y-85537229D01*
X160320013Y-85611608D01*
X160269682Y-85626875D01*
X160169023Y-85657410D01*
X160090571Y-85665137D01*
X160051346Y-85669000D01*
X158972654Y-85669000D01*
X158933429Y-85665137D01*
X158854977Y-85657410D01*
X158754318Y-85626875D01*
X158703987Y-85611608D01*
X158564835Y-85537229D01*
X158442867Y-85437133D01*
X158342771Y-85315165D01*
X158268392Y-85176013D01*
X158240994Y-85085693D01*
X158222590Y-85025023D01*
X158207125Y-84868000D01*
X158222590Y-84710977D01*
X158268392Y-84559988D01*
X158268392Y-84559987D01*
X158342771Y-84420835D01*
X158442867Y-84298867D01*
X158564835Y-84198771D01*
X158703987Y-84124392D01*
X158754318Y-84109125D01*
X158854977Y-84078590D01*
X158933429Y-84070863D01*
X158972654Y-84067000D01*
X160051346Y-84067000D01*
X160090571Y-84070863D01*
G37*
G36*
X144596571Y-84070863D02*
G01*
X144675023Y-84078590D01*
X144775682Y-84109125D01*
X144826013Y-84124392D01*
X144965165Y-84198771D01*
X145087133Y-84298867D01*
X145187229Y-84420835D01*
X145261608Y-84559987D01*
X145261608Y-84559988D01*
X145307410Y-84710977D01*
X145322875Y-84868000D01*
X145307410Y-85025023D01*
X145289006Y-85085693D01*
X145261608Y-85176013D01*
X145187229Y-85315165D01*
X145087133Y-85437133D01*
X144965165Y-85537229D01*
X144826013Y-85611608D01*
X144775682Y-85626875D01*
X144675023Y-85657410D01*
X144596571Y-85665137D01*
X144557346Y-85669000D01*
X143478654Y-85669000D01*
X143439429Y-85665137D01*
X143360977Y-85657410D01*
X143260318Y-85626875D01*
X143209987Y-85611608D01*
X143070835Y-85537229D01*
X142948867Y-85437133D01*
X142848771Y-85315165D01*
X142774392Y-85176013D01*
X142746994Y-85085693D01*
X142728590Y-85025023D01*
X142713125Y-84868000D01*
X142728590Y-84710977D01*
X142774392Y-84559988D01*
X142774392Y-84559987D01*
X142848771Y-84420835D01*
X142948867Y-84298867D01*
X143070835Y-84198771D01*
X143209987Y-84124392D01*
X143260318Y-84109125D01*
X143360977Y-84078590D01*
X143439429Y-84070863D01*
X143478654Y-84067000D01*
X144557346Y-84067000D01*
X144596571Y-84070863D01*
G37*
G36*
X86402601Y-81750903D02*
G01*
X86642410Y-81798604D01*
X86924674Y-81915521D01*
X87178705Y-82085259D01*
X87394741Y-82301295D01*
X87564479Y-82555326D01*
X87681396Y-82837590D01*
X87741000Y-83137240D01*
X87741000Y-83442760D01*
X87681396Y-83742410D01*
X87564479Y-84024674D01*
X87394741Y-84278705D01*
X87178705Y-84494741D01*
X86924674Y-84664479D01*
X86642410Y-84781396D01*
X86492585Y-84811198D01*
X86342761Y-84841000D01*
X86037239Y-84841000D01*
X85887415Y-84811198D01*
X85737590Y-84781396D01*
X85455326Y-84664479D01*
X85201295Y-84494741D01*
X84985259Y-84278705D01*
X84815521Y-84024674D01*
X84698604Y-83742410D01*
X84639000Y-83442760D01*
X84639000Y-83137240D01*
X84698604Y-82837590D01*
X84815521Y-82555326D01*
X84985259Y-82301295D01*
X85201295Y-82085259D01*
X85455326Y-81915521D01*
X85737590Y-81798604D01*
X85977399Y-81750903D01*
X86037239Y-81739000D01*
X86342761Y-81739000D01*
X86402601Y-81750903D01*
G37*
G36*
X160331271Y-79628103D02*
G01*
X160387635Y-79633654D01*
X160604600Y-79699470D01*
X160604602Y-79699471D01*
X160804555Y-79806347D01*
X160979818Y-79950182D01*
X161123653Y-80125445D01*
X161207739Y-80282761D01*
X161230530Y-80325400D01*
X161260879Y-80425447D01*
X161296346Y-80542366D01*
X161318569Y-80768000D01*
X161296346Y-80993634D01*
X161230529Y-81210602D01*
X161123653Y-81410555D01*
X160979818Y-81585818D01*
X160804555Y-81729653D01*
X160675555Y-81798604D01*
X160604600Y-81836530D01*
X160387635Y-81902346D01*
X160387631Y-81902346D01*
X160385516Y-81902988D01*
X160365803Y-81906909D01*
X160343164Y-81916285D01*
X160322790Y-81929899D01*
X160305462Y-81947225D01*
X160291848Y-81967599D01*
X160282470Y-81990238D01*
X160277689Y-82014271D01*
X160277689Y-82038775D01*
X160282469Y-82062809D01*
X160291845Y-82085448D01*
X160305459Y-82105822D01*
X160322785Y-82123150D01*
X160343161Y-82136765D01*
X160459165Y-82198771D01*
X160581133Y-82298867D01*
X160681229Y-82420835D01*
X160755608Y-82559987D01*
X160755608Y-82559988D01*
X160801410Y-82710977D01*
X160816875Y-82868000D01*
X160801410Y-83025023D01*
X160770875Y-83125682D01*
X160755608Y-83176013D01*
X160681229Y-83315165D01*
X160581133Y-83437133D01*
X160459165Y-83537229D01*
X160320013Y-83611608D01*
X160269682Y-83626875D01*
X160169023Y-83657410D01*
X160090571Y-83665137D01*
X160051346Y-83669000D01*
X158972654Y-83669000D01*
X158933429Y-83665137D01*
X158854977Y-83657410D01*
X158754318Y-83626875D01*
X158703987Y-83611608D01*
X158564835Y-83537229D01*
X158442867Y-83437133D01*
X158342771Y-83315165D01*
X158268392Y-83176013D01*
X158253125Y-83125682D01*
X158222590Y-83025023D01*
X158207125Y-82868000D01*
X158222590Y-82710977D01*
X158268392Y-82559988D01*
X158268392Y-82559987D01*
X158342771Y-82420835D01*
X158442867Y-82298867D01*
X158564835Y-82198771D01*
X158680839Y-82136765D01*
X158701213Y-82123151D01*
X158718540Y-82105824D01*
X158732154Y-82085450D01*
X158741531Y-82062811D01*
X158746311Y-82038777D01*
X158746311Y-82014273D01*
X158741530Y-81990240D01*
X158732153Y-81967601D01*
X158718539Y-81947227D01*
X158701212Y-81929900D01*
X158680838Y-81916286D01*
X158658199Y-81906909D01*
X158638484Y-81902988D01*
X158636369Y-81902346D01*
X158636365Y-81902346D01*
X158419400Y-81836530D01*
X158348445Y-81798604D01*
X158219445Y-81729653D01*
X158044182Y-81585818D01*
X157900347Y-81410555D01*
X157793471Y-81210602D01*
X157727654Y-80993634D01*
X157705431Y-80768000D01*
X157727654Y-80542366D01*
X157763121Y-80425447D01*
X157793470Y-80325400D01*
X157816261Y-80282761D01*
X157900347Y-80125445D01*
X158044182Y-79950182D01*
X158219445Y-79806347D01*
X158419398Y-79699471D01*
X158419400Y-79699470D01*
X158636365Y-79633654D01*
X158692729Y-79628103D01*
X158805455Y-79617000D01*
X160218545Y-79617000D01*
X160331271Y-79628103D01*
G37*
G36*
X144837271Y-79628103D02*
G01*
X144893635Y-79633654D01*
X145110600Y-79699470D01*
X145110602Y-79699471D01*
X145310555Y-79806347D01*
X145485818Y-79950182D01*
X145629653Y-80125445D01*
X145713739Y-80282761D01*
X145736530Y-80325400D01*
X145766879Y-80425447D01*
X145802346Y-80542366D01*
X145824569Y-80768000D01*
X145802346Y-80993634D01*
X145736529Y-81210602D01*
X145629653Y-81410555D01*
X145485818Y-81585818D01*
X145310555Y-81729653D01*
X145181555Y-81798604D01*
X145110600Y-81836530D01*
X144893635Y-81902346D01*
X144893631Y-81902346D01*
X144891516Y-81902988D01*
X144871803Y-81906909D01*
X144849164Y-81916285D01*
X144828790Y-81929899D01*
X144811462Y-81947225D01*
X144797848Y-81967599D01*
X144788470Y-81990238D01*
X144783689Y-82014271D01*
X144783689Y-82038775D01*
X144788469Y-82062809D01*
X144797845Y-82085448D01*
X144811459Y-82105822D01*
X144828785Y-82123150D01*
X144849161Y-82136765D01*
X144965165Y-82198771D01*
X145087133Y-82298867D01*
X145187229Y-82420835D01*
X145261608Y-82559987D01*
X145261608Y-82559988D01*
X145307410Y-82710977D01*
X145322875Y-82868000D01*
X145307410Y-83025023D01*
X145276875Y-83125682D01*
X145261608Y-83176013D01*
X145187229Y-83315165D01*
X145087133Y-83437133D01*
X144965165Y-83537229D01*
X144826013Y-83611608D01*
X144775682Y-83626875D01*
X144675023Y-83657410D01*
X144596571Y-83665137D01*
X144557346Y-83669000D01*
X143478654Y-83669000D01*
X143439429Y-83665137D01*
X143360977Y-83657410D01*
X143260318Y-83626875D01*
X143209987Y-83611608D01*
X143070835Y-83537229D01*
X142948867Y-83437133D01*
X142848771Y-83315165D01*
X142774392Y-83176013D01*
X142759125Y-83125682D01*
X142728590Y-83025023D01*
X142713125Y-82868000D01*
X142728590Y-82710977D01*
X142774392Y-82559988D01*
X142774392Y-82559987D01*
X142848771Y-82420835D01*
X142948867Y-82298867D01*
X143070835Y-82198771D01*
X143186839Y-82136765D01*
X143207213Y-82123151D01*
X143224540Y-82105824D01*
X143238154Y-82085450D01*
X143247531Y-82062811D01*
X143252311Y-82038777D01*
X143252311Y-82014273D01*
X143247530Y-81990240D01*
X143238153Y-81967601D01*
X143224539Y-81947227D01*
X143207212Y-81929900D01*
X143186838Y-81916286D01*
X143164199Y-81906909D01*
X143144484Y-81902988D01*
X143142369Y-81902346D01*
X143142365Y-81902346D01*
X142925400Y-81836530D01*
X142854445Y-81798604D01*
X142725445Y-81729653D01*
X142550182Y-81585818D01*
X142406347Y-81410555D01*
X142299471Y-81210602D01*
X142233654Y-80993634D01*
X142211431Y-80768000D01*
X142233654Y-80542366D01*
X142269121Y-80425447D01*
X142299470Y-80325400D01*
X142322261Y-80282761D01*
X142406347Y-80125445D01*
X142550182Y-79950182D01*
X142725445Y-79806347D01*
X142925398Y-79699471D01*
X142925400Y-79699470D01*
X143142365Y-79633654D01*
X143198729Y-79628103D01*
X143311455Y-79617000D01*
X144724545Y-79617000D01*
X144837271Y-79628103D01*
G37*
G36*
X195396425Y-80282760D02*
G01*
X195396428Y-80282761D01*
X195396429Y-80282761D01*
X195575693Y-80337140D01*
X195575696Y-80337142D01*
X195575697Y-80337142D01*
X195740903Y-80425446D01*
X195885712Y-80544288D01*
X196004554Y-80689097D01*
X196046728Y-80768000D01*
X196092860Y-80854307D01*
X196147239Y-81033571D01*
X196147240Y-81033575D01*
X196165601Y-81220000D01*
X196147240Y-81406425D01*
X196147239Y-81406428D01*
X196147239Y-81406429D01*
X196092860Y-81585693D01*
X196092858Y-81585696D01*
X196092858Y-81585697D01*
X196004554Y-81750903D01*
X195885712Y-81895712D01*
X195740903Y-82014554D01*
X195608265Y-82085450D01*
X195575693Y-82102860D01*
X195396429Y-82157239D01*
X195396428Y-82157239D01*
X195396425Y-82157240D01*
X195256718Y-82171000D01*
X193363282Y-82171000D01*
X193223575Y-82157240D01*
X193223572Y-82157239D01*
X193223571Y-82157239D01*
X193044307Y-82102860D01*
X193011735Y-82085450D01*
X192879097Y-82014554D01*
X192734288Y-81895712D01*
X192615446Y-81750903D01*
X192527142Y-81585697D01*
X192527142Y-81585696D01*
X192527140Y-81585693D01*
X192472761Y-81406429D01*
X192472761Y-81406428D01*
X192472760Y-81406425D01*
X192454399Y-81220000D01*
X192472760Y-81033575D01*
X192472761Y-81033571D01*
X192527140Y-80854307D01*
X192573272Y-80768000D01*
X192615446Y-80689097D01*
X192734288Y-80544288D01*
X192879097Y-80425446D01*
X193044303Y-80337142D01*
X193044304Y-80337142D01*
X193044307Y-80337140D01*
X193223571Y-80282761D01*
X193223572Y-80282761D01*
X193223575Y-80282760D01*
X193363282Y-80269000D01*
X195256718Y-80269000D01*
X195396425Y-80282760D01*
G37*
G36*
X195396425Y-76782760D02*
G01*
X195396428Y-76782761D01*
X195396429Y-76782761D01*
X195575693Y-76837140D01*
X195575696Y-76837142D01*
X195575697Y-76837142D01*
X195740903Y-76925446D01*
X195885712Y-77044288D01*
X196004554Y-77189097D01*
X196092858Y-77354303D01*
X196092860Y-77354307D01*
X196147239Y-77533571D01*
X196147240Y-77533575D01*
X196165601Y-77720000D01*
X196147240Y-77906425D01*
X196147239Y-77906428D01*
X196147239Y-77906429D01*
X196092860Y-78085693D01*
X196092858Y-78085696D01*
X196092858Y-78085697D01*
X196004554Y-78250903D01*
X195885712Y-78395712D01*
X195740903Y-78514554D01*
X195575697Y-78602858D01*
X195575693Y-78602860D01*
X195396429Y-78657239D01*
X195396428Y-78657239D01*
X195396425Y-78657240D01*
X195256718Y-78671000D01*
X193363282Y-78671000D01*
X193223575Y-78657240D01*
X193223572Y-78657239D01*
X193223571Y-78657239D01*
X193044307Y-78602860D01*
X193044303Y-78602858D01*
X192879097Y-78514554D01*
X192734288Y-78395712D01*
X192615446Y-78250903D01*
X192527142Y-78085697D01*
X192527142Y-78085696D01*
X192527140Y-78085693D01*
X192472761Y-77906429D01*
X192472761Y-77906428D01*
X192472760Y-77906425D01*
X192454399Y-77720000D01*
X192472760Y-77533575D01*
X192472761Y-77533571D01*
X192527140Y-77354307D01*
X192527142Y-77354303D01*
X192615446Y-77189097D01*
X192734288Y-77044288D01*
X192879097Y-76925446D01*
X193044303Y-76837142D01*
X193044304Y-76837142D01*
X193044307Y-76837140D01*
X193223571Y-76782761D01*
X193223572Y-76782761D01*
X193223575Y-76782760D01*
X193363282Y-76769000D01*
X195256718Y-76769000D01*
X195396425Y-76782760D01*
G37*
G36*
X88296366Y-72765695D02*
G01*
X88453460Y-72813349D01*
X88598231Y-72890731D01*
X88725128Y-72994872D01*
X88829269Y-73121769D01*
X88906651Y-73266540D01*
X88954305Y-73423634D01*
X88971000Y-73593140D01*
X88971000Y-75506860D01*
X88954305Y-75676366D01*
X88906651Y-75833460D01*
X88829269Y-75978231D01*
X88725128Y-76105128D01*
X88598231Y-76209269D01*
X88453460Y-76286651D01*
X88296366Y-76334305D01*
X88126860Y-76351000D01*
X86213140Y-76351000D01*
X86043634Y-76334305D01*
X85886540Y-76286651D01*
X85741769Y-76209269D01*
X85614872Y-76105128D01*
X85510731Y-75978231D01*
X85433349Y-75833460D01*
X85385695Y-75676366D01*
X85369000Y-75506860D01*
X85369000Y-73593140D01*
X85385695Y-73423634D01*
X85433349Y-73266540D01*
X85510731Y-73121769D01*
X85614872Y-72994872D01*
X85741769Y-72890731D01*
X85886540Y-72813349D01*
X86043634Y-72765695D01*
X86213140Y-72749000D01*
X88126860Y-72749000D01*
X88296366Y-72765695D01*
G37*
G36*
X195396425Y-73282760D02*
G01*
X195396428Y-73282761D01*
X195396429Y-73282761D01*
X195575693Y-73337140D01*
X195575696Y-73337142D01*
X195575697Y-73337142D01*
X195740903Y-73425446D01*
X195885712Y-73544288D01*
X196004554Y-73689097D01*
X196092858Y-73854303D01*
X196092860Y-73854307D01*
X196147239Y-74033571D01*
X196147240Y-74033575D01*
X196165601Y-74220000D01*
X196147240Y-74406425D01*
X196147239Y-74406428D01*
X196147239Y-74406429D01*
X196092860Y-74585693D01*
X196092858Y-74585696D01*
X196092858Y-74585697D01*
X196004554Y-74750903D01*
X195885712Y-74895712D01*
X195740903Y-75014554D01*
X195575697Y-75102858D01*
X195575693Y-75102860D01*
X195396429Y-75157239D01*
X195396428Y-75157239D01*
X195396425Y-75157240D01*
X195256718Y-75171000D01*
X193363282Y-75171000D01*
X193223575Y-75157240D01*
X193223572Y-75157239D01*
X193223571Y-75157239D01*
X193044307Y-75102860D01*
X193044303Y-75102858D01*
X192879097Y-75014554D01*
X192734288Y-74895712D01*
X192615446Y-74750903D01*
X192527142Y-74585697D01*
X192527142Y-74585696D01*
X192527140Y-74585693D01*
X192472761Y-74406429D01*
X192472761Y-74406428D01*
X192472760Y-74406425D01*
X192454399Y-74220000D01*
X192472760Y-74033575D01*
X192472761Y-74033571D01*
X192527140Y-73854307D01*
X192527142Y-73854303D01*
X192615446Y-73689097D01*
X192734288Y-73544288D01*
X192879097Y-73425446D01*
X193044303Y-73337142D01*
X193044304Y-73337142D01*
X193044307Y-73337140D01*
X193223571Y-73282761D01*
X193223572Y-73282761D01*
X193223575Y-73282760D01*
X193363282Y-73269000D01*
X195256718Y-73269000D01*
X195396425Y-73282760D01*
G37*
G36*
X142546564Y-71379389D02*
G01*
X142737833Y-71458615D01*
X142737835Y-71458616D01*
X142909973Y-71573635D01*
X143056365Y-71720027D01*
X143171385Y-71892167D01*
X143250611Y-72083436D01*
X143291000Y-72286484D01*
X143291000Y-72493516D01*
X143250611Y-72696564D01*
X143171385Y-72887833D01*
X143171384Y-72887835D01*
X143056365Y-73059973D01*
X142909973Y-73206365D01*
X142737835Y-73321384D01*
X142737834Y-73321385D01*
X142737833Y-73321385D01*
X142546564Y-73400611D01*
X142343516Y-73441000D01*
X142136484Y-73441000D01*
X141933436Y-73400611D01*
X141742167Y-73321385D01*
X141742166Y-73321385D01*
X141742165Y-73321384D01*
X141570027Y-73206365D01*
X141423635Y-73059973D01*
X141308616Y-72887835D01*
X141308615Y-72887833D01*
X141229389Y-72696564D01*
X141189000Y-72493516D01*
X141189000Y-72286484D01*
X141229389Y-72083436D01*
X141308615Y-71892167D01*
X141423635Y-71720027D01*
X141570027Y-71573635D01*
X141742165Y-71458616D01*
X141742167Y-71458615D01*
X141933436Y-71379389D01*
X142136484Y-71339000D01*
X142343516Y-71339000D01*
X142546564Y-71379389D01*
G37*
G36*
X145086564Y-71379389D02*
G01*
X145277833Y-71458615D01*
X145277835Y-71458616D01*
X145449973Y-71573635D01*
X145596365Y-71720027D01*
X145711385Y-71892167D01*
X145790611Y-72083436D01*
X145831000Y-72286484D01*
X145831000Y-72493516D01*
X145790611Y-72696564D01*
X145711385Y-72887833D01*
X145711384Y-72887835D01*
X145596365Y-73059973D01*
X145449973Y-73206365D01*
X145277835Y-73321384D01*
X145277834Y-73321385D01*
X145277833Y-73321385D01*
X145086564Y-73400611D01*
X144883516Y-73441000D01*
X144676484Y-73441000D01*
X144473436Y-73400611D01*
X144282167Y-73321385D01*
X144282166Y-73321385D01*
X144282165Y-73321384D01*
X144110027Y-73206365D01*
X143963635Y-73059973D01*
X143848616Y-72887835D01*
X143848615Y-72887833D01*
X143769389Y-72696564D01*
X143729000Y-72493516D01*
X143729000Y-72286484D01*
X143769389Y-72083436D01*
X143848615Y-71892167D01*
X143963635Y-71720027D01*
X144110027Y-71573635D01*
X144282165Y-71458616D01*
X144282167Y-71458615D01*
X144473436Y-71379389D01*
X144676484Y-71339000D01*
X144883516Y-71339000D01*
X145086564Y-71379389D01*
G37*
G36*
X140006564Y-71379389D02*
G01*
X140197833Y-71458615D01*
X140197835Y-71458616D01*
X140369973Y-71573635D01*
X140516365Y-71720027D01*
X140631385Y-71892167D01*
X140710611Y-72083436D01*
X140751000Y-72286484D01*
X140751000Y-72493516D01*
X140710611Y-72696564D01*
X140631385Y-72887833D01*
X140631384Y-72887835D01*
X140516365Y-73059973D01*
X140369973Y-73206365D01*
X140197835Y-73321384D01*
X140197834Y-73321385D01*
X140197833Y-73321385D01*
X140006564Y-73400611D01*
X139803516Y-73441000D01*
X139596484Y-73441000D01*
X139393436Y-73400611D01*
X139202167Y-73321385D01*
X139202166Y-73321385D01*
X139202165Y-73321384D01*
X139030027Y-73206365D01*
X138883635Y-73059973D01*
X138768616Y-72887835D01*
X138768615Y-72887833D01*
X138689389Y-72696564D01*
X138649000Y-72493516D01*
X138649000Y-72286484D01*
X138689389Y-72083436D01*
X138768615Y-71892167D01*
X138883635Y-71720027D01*
X139030027Y-71573635D01*
X139202165Y-71458616D01*
X139202167Y-71458615D01*
X139393436Y-71379389D01*
X139596484Y-71339000D01*
X139803516Y-71339000D01*
X140006564Y-71379389D01*
G37*
G36*
X135671000Y-73441000D02*
G01*
X133569000Y-73441000D01*
X133569000Y-71339000D01*
X135671000Y-71339000D01*
X135671000Y-73441000D01*
G37*
G36*
X195396425Y-69782760D02*
G01*
X195396428Y-69782761D01*
X195396429Y-69782761D01*
X195575693Y-69837140D01*
X195575696Y-69837142D01*
X195575697Y-69837142D01*
X195740903Y-69925446D01*
X195885712Y-70044288D01*
X196004554Y-70189097D01*
X196092858Y-70354303D01*
X196092860Y-70354307D01*
X196147239Y-70533571D01*
X196147240Y-70533575D01*
X196165601Y-70720000D01*
X196147240Y-70906425D01*
X196147239Y-70906428D01*
X196147239Y-70906429D01*
X196092860Y-71085693D01*
X196092858Y-71085696D01*
X196092858Y-71085697D01*
X196004554Y-71250903D01*
X195885712Y-71395712D01*
X195740903Y-71514554D01*
X195596069Y-71591969D01*
X195575693Y-71602860D01*
X195396429Y-71657239D01*
X195396428Y-71657239D01*
X195396425Y-71657240D01*
X195256718Y-71671000D01*
X193363282Y-71671000D01*
X193223575Y-71657240D01*
X193223572Y-71657239D01*
X193223571Y-71657239D01*
X193044307Y-71602860D01*
X193023931Y-71591969D01*
X192879097Y-71514554D01*
X192734288Y-71395712D01*
X192615446Y-71250903D01*
X192527142Y-71085697D01*
X192527142Y-71085696D01*
X192527140Y-71085693D01*
X192472761Y-70906429D01*
X192472761Y-70906428D01*
X192472760Y-70906425D01*
X192454399Y-70720000D01*
X192472760Y-70533575D01*
X192472761Y-70533571D01*
X192527140Y-70354307D01*
X192527142Y-70354303D01*
X192615446Y-70189097D01*
X192734288Y-70044288D01*
X192879097Y-69925446D01*
X193044303Y-69837142D01*
X193044304Y-69837142D01*
X193044307Y-69837140D01*
X193223571Y-69782761D01*
X193223572Y-69782761D01*
X193223575Y-69782760D01*
X193363282Y-69769000D01*
X195256718Y-69769000D01*
X195396425Y-69782760D01*
G37*
G36*
X85146979Y-68063293D02*
G01*
X85280625Y-68103834D01*
X85403784Y-68169664D01*
X85511740Y-68258260D01*
X85600336Y-68366216D01*
X85666166Y-68489375D01*
X85706707Y-68623021D01*
X85721000Y-68768140D01*
X85721000Y-70931860D01*
X85706707Y-71076979D01*
X85666166Y-71210625D01*
X85600336Y-71333784D01*
X85511740Y-71441740D01*
X85403784Y-71530336D01*
X85280625Y-71596166D01*
X85146979Y-71636707D01*
X85001860Y-71651000D01*
X83338140Y-71651000D01*
X83193021Y-71636707D01*
X83059375Y-71596166D01*
X82936216Y-71530336D01*
X82828260Y-71441740D01*
X82739664Y-71333784D01*
X82673834Y-71210625D01*
X82633293Y-71076979D01*
X82619000Y-70931860D01*
X82619000Y-68768140D01*
X82633293Y-68623021D01*
X82673834Y-68489375D01*
X82739664Y-68366216D01*
X82828260Y-68258260D01*
X82936216Y-68169664D01*
X83059375Y-68103834D01*
X83193021Y-68063293D01*
X83338140Y-68049000D01*
X85001860Y-68049000D01*
X85146979Y-68063293D01*
G37*
G36*
X91971000Y-71651000D02*
G01*
X88369000Y-71651000D01*
X88369000Y-68049000D01*
X91971000Y-68049000D01*
X91971000Y-71651000D01*
G37*
G36*
X142546564Y-66299389D02*
G01*
X142737833Y-66378615D01*
X142737835Y-66378616D01*
X142909973Y-66493635D01*
X143056365Y-66640027D01*
X143089153Y-66689097D01*
X143171385Y-66812167D01*
X143250611Y-67003436D01*
X143291000Y-67206484D01*
X143291000Y-67413516D01*
X143250611Y-67616564D01*
X143194966Y-67750903D01*
X143171384Y-67807835D01*
X143056365Y-67979973D01*
X142909973Y-68126365D01*
X142737835Y-68241384D01*
X142737834Y-68241385D01*
X142737833Y-68241385D01*
X142546564Y-68320611D01*
X142343516Y-68361000D01*
X142136484Y-68361000D01*
X141933436Y-68320611D01*
X141742167Y-68241385D01*
X141742166Y-68241385D01*
X141742165Y-68241384D01*
X141570027Y-68126365D01*
X141423635Y-67979973D01*
X141308616Y-67807835D01*
X141285034Y-67750903D01*
X141229389Y-67616564D01*
X141189000Y-67413516D01*
X141189000Y-67206484D01*
X141229389Y-67003436D01*
X141308615Y-66812167D01*
X141390848Y-66689097D01*
X141423635Y-66640027D01*
X141570027Y-66493635D01*
X141742165Y-66378616D01*
X141742167Y-66378615D01*
X141933436Y-66299389D01*
X142136484Y-66259000D01*
X142343516Y-66259000D01*
X142546564Y-66299389D01*
G37*
G36*
X145086564Y-66299389D02*
G01*
X145277833Y-66378615D01*
X145277835Y-66378616D01*
X145449973Y-66493635D01*
X145596365Y-66640027D01*
X145629153Y-66689097D01*
X145711385Y-66812167D01*
X145790611Y-67003436D01*
X145831000Y-67206484D01*
X145831000Y-67413516D01*
X145790611Y-67616564D01*
X145734966Y-67750903D01*
X145711384Y-67807835D01*
X145596365Y-67979973D01*
X145449973Y-68126365D01*
X145277835Y-68241384D01*
X145277834Y-68241385D01*
X145277833Y-68241385D01*
X145086564Y-68320611D01*
X144883516Y-68361000D01*
X144676484Y-68361000D01*
X144473436Y-68320611D01*
X144282167Y-68241385D01*
X144282166Y-68241385D01*
X144282165Y-68241384D01*
X144110027Y-68126365D01*
X143963635Y-67979973D01*
X143848616Y-67807835D01*
X143825034Y-67750903D01*
X143769389Y-67616564D01*
X143729000Y-67413516D01*
X143729000Y-67206484D01*
X143769389Y-67003436D01*
X143848615Y-66812167D01*
X143930848Y-66689097D01*
X143963635Y-66640027D01*
X144110027Y-66493635D01*
X144282165Y-66378616D01*
X144282167Y-66378615D01*
X144473436Y-66299389D01*
X144676484Y-66259000D01*
X144883516Y-66259000D01*
X145086564Y-66299389D01*
G37*
G36*
X140006564Y-66299389D02*
G01*
X140197833Y-66378615D01*
X140197835Y-66378616D01*
X140369973Y-66493635D01*
X140516365Y-66640027D01*
X140549153Y-66689097D01*
X140631385Y-66812167D01*
X140710611Y-67003436D01*
X140751000Y-67206484D01*
X140751000Y-67413516D01*
X140710611Y-67616564D01*
X140654966Y-67750903D01*
X140631384Y-67807835D01*
X140516365Y-67979973D01*
X140369973Y-68126365D01*
X140197835Y-68241384D01*
X140197834Y-68241385D01*
X140197833Y-68241385D01*
X140006564Y-68320611D01*
X139803516Y-68361000D01*
X139596484Y-68361000D01*
X139393436Y-68320611D01*
X139202167Y-68241385D01*
X139202166Y-68241385D01*
X139202165Y-68241384D01*
X139030027Y-68126365D01*
X138883635Y-67979973D01*
X138768616Y-67807835D01*
X138745034Y-67750903D01*
X138689389Y-67616564D01*
X138649000Y-67413516D01*
X138649000Y-67206484D01*
X138689389Y-67003436D01*
X138768615Y-66812167D01*
X138850848Y-66689097D01*
X138883635Y-66640027D01*
X139030027Y-66493635D01*
X139202165Y-66378616D01*
X139202167Y-66378615D01*
X139393436Y-66299389D01*
X139596484Y-66259000D01*
X139803516Y-66259000D01*
X140006564Y-66299389D01*
G37*
G36*
X134926564Y-66299389D02*
G01*
X135117833Y-66378615D01*
X135117835Y-66378616D01*
X135289973Y-66493635D01*
X135436365Y-66640027D01*
X135469153Y-66689097D01*
X135551385Y-66812167D01*
X135630611Y-67003436D01*
X135671000Y-67206484D01*
X135671000Y-67413516D01*
X135630611Y-67616564D01*
X135574966Y-67750903D01*
X135551384Y-67807835D01*
X135436365Y-67979973D01*
X135289973Y-68126365D01*
X135117835Y-68241384D01*
X135117834Y-68241385D01*
X135117833Y-68241385D01*
X134926564Y-68320611D01*
X134723516Y-68361000D01*
X134516484Y-68361000D01*
X134313436Y-68320611D01*
X134122167Y-68241385D01*
X134122166Y-68241385D01*
X134122165Y-68241384D01*
X133950027Y-68126365D01*
X133803635Y-67979973D01*
X133688616Y-67807835D01*
X133665034Y-67750903D01*
X133609389Y-67616564D01*
X133569000Y-67413516D01*
X133569000Y-67206484D01*
X133609389Y-67003436D01*
X133688615Y-66812167D01*
X133770848Y-66689097D01*
X133803635Y-66640027D01*
X133950027Y-66493635D01*
X134122165Y-66378616D01*
X134122167Y-66378615D01*
X134313436Y-66299389D01*
X134516484Y-66259000D01*
X134723516Y-66259000D01*
X134926564Y-66299389D01*
G37*
G36*
X195396425Y-66282760D02*
G01*
X195396428Y-66282761D01*
X195396429Y-66282761D01*
X195575693Y-66337140D01*
X195575696Y-66337142D01*
X195575697Y-66337142D01*
X195740903Y-66425446D01*
X195885712Y-66544288D01*
X196004554Y-66689097D01*
X196070335Y-66812165D01*
X196092860Y-66854307D01*
X196147239Y-67033571D01*
X196147240Y-67033575D01*
X196165601Y-67220000D01*
X196147240Y-67406425D01*
X196147239Y-67406428D01*
X196147239Y-67406429D01*
X196092860Y-67585693D01*
X196092858Y-67585696D01*
X196092858Y-67585697D01*
X196004554Y-67750903D01*
X195885712Y-67895712D01*
X195740903Y-68014554D01*
X195575697Y-68102858D01*
X195575693Y-68102860D01*
X195396429Y-68157239D01*
X195396428Y-68157239D01*
X195396425Y-68157240D01*
X195256718Y-68171000D01*
X193363282Y-68171000D01*
X193223575Y-68157240D01*
X193223572Y-68157239D01*
X193223571Y-68157239D01*
X193044307Y-68102860D01*
X193044303Y-68102858D01*
X192879097Y-68014554D01*
X192734288Y-67895712D01*
X192615446Y-67750903D01*
X192527142Y-67585697D01*
X192527142Y-67585696D01*
X192527140Y-67585693D01*
X192472761Y-67406429D01*
X192472761Y-67406428D01*
X192472760Y-67406425D01*
X192454399Y-67220000D01*
X192472760Y-67033575D01*
X192472761Y-67033571D01*
X192527140Y-66854307D01*
X192549665Y-66812165D01*
X192615446Y-66689097D01*
X192734288Y-66544288D01*
X192879097Y-66425446D01*
X193044303Y-66337142D01*
X193044304Y-66337142D01*
X193044307Y-66337140D01*
X193223571Y-66282761D01*
X193223572Y-66282761D01*
X193223575Y-66282760D01*
X193363282Y-66269000D01*
X195256718Y-66269000D01*
X195396425Y-66282760D01*
G37*
G36*
X150356425Y-57852760D02*
G01*
X150356428Y-57852761D01*
X150356429Y-57852761D01*
X150535693Y-57907140D01*
X150535696Y-57907142D01*
X150535697Y-57907142D01*
X150700903Y-57995446D01*
X150845712Y-58114288D01*
X150964554Y-58259097D01*
X151020189Y-58363184D01*
X151052860Y-58424307D01*
X151107239Y-58603571D01*
X151107240Y-58603575D01*
X151121000Y-58743282D01*
X151121000Y-60636718D01*
X151107240Y-60776425D01*
X151107239Y-60776428D01*
X151107239Y-60776429D01*
X151052860Y-60955693D01*
X151052858Y-60955696D01*
X151052858Y-60955697D01*
X150964554Y-61120903D01*
X150845712Y-61265712D01*
X150700903Y-61384554D01*
X150552964Y-61463628D01*
X150535692Y-61472860D01*
X150356428Y-61527239D01*
X150356427Y-61527239D01*
X150356424Y-61527240D01*
X150170000Y-61545601D01*
X149983575Y-61527240D01*
X149983572Y-61527239D01*
X149983571Y-61527239D01*
X149804307Y-61472860D01*
X149786575Y-61463382D01*
X149639097Y-61384554D01*
X149494288Y-61265712D01*
X149375446Y-61120903D01*
X149287142Y-60955696D01*
X149287141Y-60955693D01*
X149287140Y-60955692D01*
X149232761Y-60776428D01*
X149232761Y-60776427D01*
X149232760Y-60776424D01*
X149219000Y-60636717D01*
X149219000Y-58743283D01*
X149232761Y-58603575D01*
X149232762Y-58603571D01*
X149287141Y-58424307D01*
X149319812Y-58363184D01*
X149375447Y-58259097D01*
X149494289Y-58114288D01*
X149639098Y-57995446D01*
X149804304Y-57907142D01*
X149804305Y-57907142D01*
X149804308Y-57907140D01*
X149983572Y-57852761D01*
X149983573Y-57852761D01*
X149983576Y-57852760D01*
X150170000Y-57834399D01*
X150356425Y-57852760D01*
G37*
G36*
X135116425Y-57852760D02*
G01*
X135116428Y-57852761D01*
X135116429Y-57852761D01*
X135295693Y-57907140D01*
X135295696Y-57907142D01*
X135295697Y-57907142D01*
X135460903Y-57995446D01*
X135605712Y-58114288D01*
X135724554Y-58259097D01*
X135780189Y-58363184D01*
X135812860Y-58424307D01*
X135867239Y-58603571D01*
X135867240Y-58603575D01*
X135881000Y-58743282D01*
X135881000Y-60636718D01*
X135867240Y-60776425D01*
X135867239Y-60776428D01*
X135867239Y-60776429D01*
X135812860Y-60955693D01*
X135812858Y-60955696D01*
X135812858Y-60955697D01*
X135724554Y-61120903D01*
X135605712Y-61265712D01*
X135460903Y-61384554D01*
X135312964Y-61463628D01*
X135295692Y-61472860D01*
X135116428Y-61527239D01*
X135116427Y-61527239D01*
X135116424Y-61527240D01*
X134930000Y-61545601D01*
X134743575Y-61527240D01*
X134743572Y-61527239D01*
X134743571Y-61527239D01*
X134564307Y-61472860D01*
X134546575Y-61463382D01*
X134399097Y-61384554D01*
X134254288Y-61265712D01*
X134135446Y-61120903D01*
X134047142Y-60955696D01*
X134047141Y-60955693D01*
X134047140Y-60955692D01*
X133992761Y-60776428D01*
X133992761Y-60776427D01*
X133992760Y-60776424D01*
X133979000Y-60636717D01*
X133979000Y-58743283D01*
X133992761Y-58603575D01*
X133992762Y-58603571D01*
X134047141Y-58424307D01*
X134079812Y-58363184D01*
X134135447Y-58259097D01*
X134254289Y-58114288D01*
X134399098Y-57995446D01*
X134564304Y-57907142D01*
X134564305Y-57907142D01*
X134564308Y-57907140D01*
X134743572Y-57852761D01*
X134743573Y-57852761D01*
X134743576Y-57852760D01*
X134930000Y-57834399D01*
X135116425Y-57852760D01*
G37*
G36*
X131616425Y-57852760D02*
G01*
X131616428Y-57852761D01*
X131616429Y-57852761D01*
X131795693Y-57907140D01*
X131795696Y-57907142D01*
X131795697Y-57907142D01*
X131960903Y-57995446D01*
X132105712Y-58114288D01*
X132224554Y-58259097D01*
X132280189Y-58363184D01*
X132312860Y-58424307D01*
X132367239Y-58603571D01*
X132367240Y-58603575D01*
X132381000Y-58743282D01*
X132381000Y-60636718D01*
X132367240Y-60776425D01*
X132367239Y-60776428D01*
X132367239Y-60776429D01*
X132312860Y-60955693D01*
X132312858Y-60955696D01*
X132312858Y-60955697D01*
X132224554Y-61120903D01*
X132105712Y-61265712D01*
X131960903Y-61384554D01*
X131812964Y-61463628D01*
X131795692Y-61472860D01*
X131616428Y-61527239D01*
X131616427Y-61527239D01*
X131616424Y-61527240D01*
X131430000Y-61545601D01*
X131243575Y-61527240D01*
X131243572Y-61527239D01*
X131243571Y-61527239D01*
X131064307Y-61472860D01*
X131046575Y-61463382D01*
X130899097Y-61384554D01*
X130754288Y-61265712D01*
X130635446Y-61120903D01*
X130547142Y-60955696D01*
X130547141Y-60955693D01*
X130547140Y-60955692D01*
X130492761Y-60776428D01*
X130492761Y-60776427D01*
X130492760Y-60776424D01*
X130479000Y-60636717D01*
X130479000Y-58743283D01*
X130492761Y-58603575D01*
X130492762Y-58603571D01*
X130547141Y-58424307D01*
X130579812Y-58363184D01*
X130635447Y-58259097D01*
X130754289Y-58114288D01*
X130899098Y-57995446D01*
X131064304Y-57907142D01*
X131064305Y-57907142D01*
X131064308Y-57907140D01*
X131243572Y-57852761D01*
X131243573Y-57852761D01*
X131243576Y-57852760D01*
X131430000Y-57834399D01*
X131616425Y-57852760D01*
G37*
G36*
X139240915Y-57842934D02*
G01*
X139273424Y-57852795D01*
X139303382Y-57868809D01*
X139329641Y-57890359D01*
X139351191Y-57916618D01*
X139367205Y-57946576D01*
X139377066Y-57979085D01*
X139381000Y-58019029D01*
X139381000Y-61360971D01*
X139377066Y-61400915D01*
X139367205Y-61433424D01*
X139351191Y-61463382D01*
X139329641Y-61489641D01*
X139303382Y-61511191D01*
X139273424Y-61527205D01*
X139240915Y-61537066D01*
X139200971Y-61541000D01*
X137659029Y-61541000D01*
X137619085Y-61537066D01*
X137586576Y-61527205D01*
X137556618Y-61511191D01*
X137530359Y-61489641D01*
X137508809Y-61463382D01*
X137492795Y-61433424D01*
X137482934Y-61400915D01*
X137479000Y-61360971D01*
X137479000Y-58019029D01*
X137482934Y-57979085D01*
X137492795Y-57946576D01*
X137508809Y-57916618D01*
X137530359Y-57890359D01*
X137556618Y-57868809D01*
X137586576Y-57852795D01*
X137619085Y-57842934D01*
X137659029Y-57839000D01*
X139200971Y-57839000D01*
X139240915Y-57842934D01*
G37*
G36*
X154480915Y-57842934D02*
G01*
X154513424Y-57852795D01*
X154543382Y-57868809D01*
X154569641Y-57890359D01*
X154591191Y-57916618D01*
X154607205Y-57946576D01*
X154617066Y-57979085D01*
X154621000Y-58019029D01*
X154621000Y-61360971D01*
X154617066Y-61400915D01*
X154607205Y-61433424D01*
X154591191Y-61463382D01*
X154569641Y-61489641D01*
X154543382Y-61511191D01*
X154513424Y-61527205D01*
X154480915Y-61537066D01*
X154440971Y-61541000D01*
X152899029Y-61541000D01*
X152859085Y-61537066D01*
X152826576Y-61527205D01*
X152796618Y-61511191D01*
X152770359Y-61489641D01*
X152748809Y-61463382D01*
X152732795Y-61433424D01*
X152722934Y-61400915D01*
X152719000Y-61360971D01*
X152719000Y-58019029D01*
X152722934Y-57979085D01*
X152732795Y-57946576D01*
X152748809Y-57916618D01*
X152770359Y-57890359D01*
X152796618Y-57868809D01*
X152826576Y-57852795D01*
X152859085Y-57842934D01*
X152899029Y-57839000D01*
X154440971Y-57839000D01*
X154480915Y-57842934D01*
G37*
G36*
X82715632Y-52492677D02*
G01*
X83021005Y-52619167D01*
X83452868Y-52798050D01*
X84116362Y-53241383D01*
X84680617Y-53805638D01*
X85123950Y-54469132D01*
X85138389Y-54503992D01*
X85429323Y-55206368D01*
X85585000Y-55989010D01*
X85585000Y-56786990D01*
X85429323Y-57569632D01*
X85319653Y-57834399D01*
X85123950Y-58306868D01*
X84680617Y-58970362D01*
X84116362Y-59534617D01*
X83452868Y-59977950D01*
X83021005Y-60156833D01*
X82715632Y-60283323D01*
X81932990Y-60439000D01*
X81135010Y-60439000D01*
X80352368Y-60283323D01*
X80046995Y-60156833D01*
X79615132Y-59977950D01*
X78951638Y-59534617D01*
X78387383Y-58970362D01*
X77944050Y-58306868D01*
X77748347Y-57834399D01*
X77638677Y-57569632D01*
X77483000Y-56786990D01*
X77483000Y-55989010D01*
X77638677Y-55206368D01*
X77929611Y-54503992D01*
X77944050Y-54469132D01*
X78387383Y-53805638D01*
X78951638Y-53241383D01*
X79615132Y-52798050D01*
X80046995Y-52619167D01*
X80352368Y-52492677D01*
X81135010Y-52337000D01*
X81932990Y-52337000D01*
X82715632Y-52492677D01*
G37*
G36*
X199555632Y-52492677D02*
G01*
X199861005Y-52619167D01*
X200292868Y-52798050D01*
X200956362Y-53241383D01*
X201520617Y-53805638D01*
X201963950Y-54469132D01*
X201978389Y-54503992D01*
X202269323Y-55206368D01*
X202425000Y-55989010D01*
X202425000Y-56786990D01*
X202269323Y-57569632D01*
X202159653Y-57834399D01*
X201963950Y-58306868D01*
X201520617Y-58970362D01*
X200956362Y-59534617D01*
X200292868Y-59977950D01*
X199861005Y-60156833D01*
X199555632Y-60283323D01*
X198772990Y-60439000D01*
X197975010Y-60439000D01*
X197192368Y-60283323D01*
X196886995Y-60156833D01*
X196455132Y-59977950D01*
X195791638Y-59534617D01*
X195227383Y-58970362D01*
X194784050Y-58306868D01*
X194588347Y-57834399D01*
X194478677Y-57569632D01*
X194323000Y-56786990D01*
X194323000Y-55989010D01*
X194478677Y-55206368D01*
X194769611Y-54503992D01*
X194784050Y-54469132D01*
X195227383Y-53805638D01*
X195791638Y-53241383D01*
X196455132Y-52798050D01*
X196886995Y-52619167D01*
X197192368Y-52492677D01*
X197975010Y-52337000D01*
X198772990Y-52337000D01*
X199555632Y-52492677D01*
G37*
M02*
